<?xml version="1.0" encoding="utf-8"?>
<!-- Generator: Adobe Illustrator 16.0.0, SVG Export Plug-In . SVG Version: 6.00 Build 0)  -->
<!DOCTYPE svg PUBLIC "-//W3C//DTD SVG 1.1//EN" "http://www.w3.org/Graphics/SVG/1.1/DTD/svg11.dtd">
<svg version="1.1" id="Layer_1" xmlns="http://www.w3.org/2000/svg" xmlns:xlink="http://www.w3.org/1999/xlink" x="0px" y="0px"
	 width="1600px" height="1600px" viewBox="0 0 1600 1600" enable-background="new 0 0 1600 1600" xml:space="preserve">
<g id="surface1">
	<path fill="#283593" d="M763.411,109.505c22.656-12.63,50.521-12.63,73.178,0c111.719,62.76,448.307,251.692,560.156,314.453
		c22.656,12.761,36.588,36.198,36.588,61.589c0,125.521,0,503.386,0,628.906c0,25.391-13.932,48.828-36.588,61.589
		c-111.85,62.76-448.308,251.692-560.156,314.453c-22.656,12.63-50.521,12.63-73.178,0
		c-111.849-62.761-448.307-251.693-560.156-314.453c-22.656-12.761-36.589-36.198-36.589-61.589c0-125.521,0-503.386,0-628.906
		c0-25.391,13.933-48.828,36.589-61.589C314.974,361.198,651.692,172.266,763.411,109.505z"/>
	<path fill="#5C6BC0" d="M176.823,1146.745c-8.854-11.85-10.156-23.047-10.156-38.281c0-124.74,0-500.391,0-625.261
		c0-25.261,13.933-48.567,36.458-61.198c111.458-62.37,446.875-250.26,558.333-312.63c22.526-12.63,53.125-12.37,75.651,0.26
		c111.458,62.37,445.703,248.568,557.161,310.938c8.984,5.078,15.886,11.197,22.006,19.271L176.823,1146.745z"/>
	<path fill="#FFFFFF" d="M800,333.333c-257.552,0-466.667,209.115-466.667,466.667S542.448,1266.667,800,1266.667
		S1266.667,1057.552,1266.667,800S1057.552,333.333,800,333.333z M800,1033.333c-128.776,0-233.333-104.557-233.333-233.333
		S671.224,566.667,800,566.667S1033.333,671.224,1033.333,800S928.776,1033.333,800,1033.333z"/>
	<path fill="#3949AB" d="M1416.146,440.104c17.188,16.146,16.928,40.364,16.928,59.505c0,126.563-1.042,486.328,0.26,612.761
		c0.131,13.281-4.297,27.213-10.807,37.63L786.458,800L1416.146,440.104z"/>
</g>
</svg>
