<?xml version="1.0" encoding="utf-8"?>
<!-- Generator: Adobe Illustrator 16.0.0, SVG Export Plug-In . SVG Version: 6.00 Build 0)  -->
<!DOCTYPE svg PUBLIC "-//W3C//DTD SVG 1.1//EN" "http://www.w3.org/Graphics/SVG/1.1/DTD/svg11.dtd">
<svg version="1.1" id="Layer_1" xmlns="http://www.w3.org/2000/svg" xmlns:xlink="http://www.w3.org/1999/xlink" x="0px" y="0px"
	 width="612px" height="792px" viewBox="0 0 612 792" enable-background="new 0 0 612 792" xml:space="preserve">
<g>
	<path fill="#33475F" d="M548.413,585.353c-15.851-6.548-28.887-16.707-27.969-36.414c0.919-19.584-14.015-32.558-14.015-32.558
		s13.097-42.901,0.918-78.337c-12.117-35.495-52.203-92.289-82.987-135.19c-30.661-42.901-4.59-92.29-32.558-155.693
		c-28.03-63.281-100.735-59.609-139.903-32.558c-39.229,26.989-27.112,94.125-25.215,125.888
		c1.836,31.641,0.857,54.223-2.754,62.424c-3.733,8.201-28.886,38.25-45.655,63.403c-16.769,25.153-28.886,77.357-41.065,98.777
		c-12.118,21.481-3.733,41.004-3.733,41.004s-8.384,2.754-14.933,16.83c-6.548,13.893-19.523,20.44-42.84,25.031
		c-23.317,4.65-23.317,19.645-17.748,36.475c5.63,16.708,0,26.133-6.548,47.553c-6.549,21.42,26.071,27.969,57.772,31.641
		c31.702,3.794,67.137,24.296,97.002,27.968c29.805,3.733,39.168-20.502,39.168-20.502s33.538-7.466,68.911-8.384
		c35.436-0.979,68.911,7.405,68.911,7.405s6.549,14.933,18.666,21.42c12.179,6.548,38.25,7.466,55.02-10.221
		c16.769-17.748,61.566-40.086,86.659-54.04C568.915,613.199,564.264,591.779,548.413,585.353z M330.235,174.211
		c16.034,0,28.886,15.851,28.886,35.374c0,13.892-6.486,25.826-15.973,31.64c-2.387-1.102-4.896-2.081-7.589-3.305
		c5.691-2.815,9.73-10.098,9.73-18.543c0-11.016-6.854-19.951-15.238-19.951c-8.323,0-15.178,8.996-15.178,19.951
		c0,4.1,0.979,7.956,2.632,11.199c-4.957-1.958-9.548-3.855-13.158-5.141c-1.897-4.712-3.06-10.159-3.06-15.912
		C301.349,190.062,314.262,174.211,330.235,174.211z M328.154,248.875c7.956,2.754,16.892,7.956,15.974,13.097
		c-0.979,5.141-5.142,5.141-15.974,11.812c-10.832,6.548-34.272,21.114-41.799,22.032c-7.528,0.979-11.75-3.305-19.707-8.445
		c-7.956-5.141-23.011-17.442-19.217-23.991c0,0,11.689-8.996,16.83-13.647c5.141-4.712,18.36-15.973,26.316-14.504
		C298.534,236.574,320.198,246.06,328.154,248.875z M256.122,179.842c12.607,0,22.828,14.994,22.828,33.538
		c0,3.427-0.367,6.548-0.979,9.608c-3.06,1.102-6.181,2.754-9.241,5.263c-1.53,1.285-2.876,2.448-4.223,3.61
		c1.958-3.733,2.815-9.057,1.897-14.688c-1.653-10.159-8.446-17.503-15.117-16.402c-6.671,1.163-10.649,10.22-8.996,20.441
		c1.713,10.22,8.445,17.564,15.116,16.401c0.367-0.061,0.734-0.184,1.163-0.306c-3.244,3.121-6.242,5.814-9.302,8.078
		c-9.241-4.284-16.034-17.014-16.034-32.069C233.355,194.835,243.515,179.842,256.122,179.842z M231.52,650.837
		c-2.999,13.342-18.666,23.072-18.666,23.072c-14.198,4.406-53.672-12.668-71.481-20.135c-17.871-7.405-63.281-9.73-69.278-16.341
		c-5.937-6.793,2.999-21.664,5.263-35.74c2.203-14.198-4.407-23.072-2.265-32.804c2.265-9.669,31.273-9.669,42.412-16.34
		c11.2-6.732,13.403-26.071,22.338-31.273c8.936-5.263,25.276,13.342,32.008,23.868c6.732,10.343,32.008,55.08,42.412,66.219
		C224.849,622.501,234.457,637.495,231.52,650.837z M396.393,520.971c-2.693,13.157-2.693,60.588-2.693,60.588
		s-28.886,40.024-73.685,46.573c-44.737,6.548-67.136,1.836-67.136,1.836l-25.153-28.887c0,0,19.523-2.815,16.769-22.399
		c-2.815-19.522-59.67-46.634-69.891-70.869s-1.836-65.301,11.2-85.803s21.42-65.239,34.456-80.172
		c13.097-14.872,23.256-46.573,18.666-60.527c0,0,27.968,33.599,47.552,27.969c19.523-5.63,63.403-38.25,69.89-32.62
		c6.549,5.63,62.485,128.643,67.993,167.811c5.631,39.168-3.732,68.911-3.732,68.911S399.146,507.874,396.393,520.971z
		 M539.478,608.792c-8.69,7.956-57.16,27.602-71.665,42.779c-14.443,15.178-33.354,27.479-44.921,23.868
		c-11.628-3.672-21.787-19.523-16.646-42.779c5.019-23.134,9.425-48.47,8.69-62.975c-0.734-14.504-3.672-34.088,0-36.965
		c3.611-2.815,9.364-1.407,9.364-1.407s-2.815,27.479,13.77,34.762c16.585,7.221,40.515-2.877,47.798-10.221
		c7.282-7.222,12.362-18.054,12.362-18.054s7.222,3.672,6.548,15.238c-0.734,11.567,5.019,28.274,15.974,34.027
		C531.461,592.819,548.168,600.775,539.478,608.792z"/>
</g>
</svg>
