<?xml version="1.0" encoding="utf-8"?>
<!-- Generator: Adobe Illustrator 16.0.0, SVG Export Plug-In . SVG Version: 6.00 Build 0)  -->
<!DOCTYPE svg PUBLIC "-//W3C//DTD SVG 1.1//EN" "http://www.w3.org/Graphics/SVG/1.1/DTD/svg11.dtd">
<svg version="1.1" id="Capa_1" xmlns="http://www.w3.org/2000/svg" xmlns:xlink="http://www.w3.org/1999/xlink" x="0px" y="0px"
	 width="612px" height="792px" viewBox="0 0 612 792" enable-background="new 0 0 612 792" xml:space="preserve">
<g>
	<path fill="#7383BF" d="M306.011,428.807c-136.239,0-249.918-49.605-276.88-115.66c-4.002,9.731-6.15,19.8-6.15,30.121
		c0,80.547,126.718,145.864,283.03,145.864c156.291,0,283.03-65.317,283.03-145.864c0-10.321-2.19-20.39-6.13-30.121
		C555.865,379.202,442.186,428.807,306.011,428.807z"/>
	<path fill="#556080" d="M306.011,533.598c-136.239,0-249.918-49.626-276.88-115.639c-4.002,9.71-6.15,19.8-6.15,30.142
		c0,80.525,126.718,145.822,283.03,145.822c156.291,0,283.03-65.297,283.03-145.822c0-10.342-2.19-20.432-6.13-30.163
		C555.865,483.972,442.186,533.598,306.011,533.598z"/>
	<path fill="#424A60" d="M306.011,641.695c-136.239,0-249.918-49.584-276.88-115.681c-4.002,9.752-6.15,19.842-6.15,30.163
		C22.98,636.725,149.698,702,306.011,702c156.291,0,283.03-65.275,283.03-145.822c0-10.321-2.19-20.411-6.13-30.163
		C555.865,592.133,442.186,641.695,306.011,641.695z"/>
	<ellipse fill="#7FABDA" cx="306.011" cy="235.823" rx="283.03" ry="145.823"/>
</g>
</svg>
