<?xml version="1.0" standalone="no"?>
<!DOCTYPE svg PUBLIC "-//W3C//DTD SVG 20010904//EN"
 "http://www.w3.org/TR/2001/REC-SVG-20010904/DTD/svg10.dtd">
<svg version="1.0" xmlns="http://www.w3.org/2000/svg"
 width="512.000000pt" height="512.000000pt" viewBox="0 0 512.000000 512.000000"
 preserveAspectRatio="xMidYMid meet">
<metadata>
Created by potrace 1.11, written by Peter Selinger 2001-2013
</metadata>
<g transform="translate(0.000000,512.000000) scale(0.100000,-0.100000)"
fill="#000000" stroke="none">
<path d="M1 4173 l0 -948 34 110 c78 259 213 534 368 750 185 258 436 503 679
663 48 31 87 60 87 64 2 14 -238 120 -394 175 -70 24 -273 78 -330 87 -165 27
-228 35 -342 41 l-102 6 0 -948z"/>
<path d="M2377 5114 c-1 -1 -38 -4 -81 -8 -44 -4 -82 -9 -85 -11 -4 -2 -34 -7
-66 -10 -117 -14 -472 -111 -499 -136 -6 -5 -16 -9 -24 -9 -19 0 -218 -93
-316 -148 -343 -192 -647 -475 -874 -812 -145 -217 -268 -486 -338 -739 -19
-69 -37 -141 -40 -160 -3 -18 -8 -43 -10 -55 -27 -130 -37 -254 -38 -441 -1
-230 4 -293 34 -465 86 -496 321 -961 670 -1325 73 -76 174 -171 224 -210 21
-16 44 -35 50 -40 6 -6 34 -26 61 -45 28 -19 52 -37 55 -40 3 -3 28 -20 55
-38 28 -17 55 -35 60 -39 41 -32 283 -154 383 -194 265 -107 567 -174 827
-184 l93 -3 0 2558 0 2559 -70 -2 c-38 -1 -70 -3 -71 -3z"/>
<path d="M4977 5114 c-1 -1 -31 -4 -67 -8 -462 -43 -899 -214 -1289 -503 -140
-104 -385 -347 -492 -488 -145 -190 -265 -403 -352 -625 -40 -101 -82 -231
-92 -279 -2 -9 -10 -43 -18 -76 -8 -33 -18 -76 -21 -95 -3 -19 -8 -46 -11 -60
-3 -14 -8 -52 -11 -85 -4 -33 -10 -82 -14 -109 -4 -27 -8 -664 -8 -1417 l0
-1368 96 4 c84 4 146 11 279 30 48 7 131 24 196 41 34 9 70 18 80 19 64 13
330 117 442 172 156 78 373 217 480 308 400 340 652 706 813 1180 29 85 65
215 76 278 3 15 7 35 10 45 6 18 11 51 21 137 4 28 9 61 12 75 4 14 7 656 9
1427 l3 1402 -71 -2 c-38 -1 -70 -3 -71 -3z"/>
</g>
</svg>
