<?xml version="1.0" encoding="utf-8"?>
<!-- Generator: Adobe Illustrator 16.0.0, SVG Export Plug-In . SVG Version: 6.00 Build 0)  -->
<!DOCTYPE svg PUBLIC "-//W3C//DTD SVG 1.1//EN" "http://www.w3.org/Graphics/SVG/1.1/DTD/svg11.dtd">
<svg version="1.1" id="Layer_1" xmlns="http://www.w3.org/2000/svg" xmlns:xlink="http://www.w3.org/1999/xlink" x="0px" y="0px"
	 viewBox="449.605 33.158 1023.158 1023.158"
	 enable-background="new 449.605 33.158 1023.158 1023.158" xml:space="preserve">
<path d="M961.185,33.158c-282.538,0-511.579,229.042-511.579,511.58c0,282.537,229.041,511.578,511.579,511.578
	c282.537,0,511.579-229.041,511.579-511.578C1472.764,262.2,1243.722,33.158,961.185,33.158z M653.289,361.817l202.989,180.239
	L653.289,724.947V361.817z M996.711,558.947c-21.316,18.947-54.475,18.947-75.79,0L679.342,343.421h556.322L996.711,558.947z
	 M1039.445,565.419l201.213,180.634H679.342l202.224-181.542l20.408,18.121c16.579,16.579,37.895,23.684,59.211,23.684
	c18.947,0,40.263-7.104,59.21-23.684L1039.445,565.419z M1064.514,542.77l202.197-182.687v364.864L1064.514,542.77z"/>
</svg>
