<?xml version="1.0" encoding="utf-8"?>
<!-- Generator: Adobe Illustrator 16.0.0, SVG Export Plug-In . SVG Version: 6.00 Build 0)  -->
<!DOCTYPE svg PUBLIC "-//W3C//DTD SVG 1.1//EN" "http://www.w3.org/Graphics/SVG/1.1/DTD/svg11.dtd">
<svg version="1.1" id="Layer_1" xmlns="http://www.w3.org/2000/svg" xmlns:xlink="http://www.w3.org/1999/xlink" x="0px" y="0px"
	 width="1041.725px" height="149.77px" viewBox="0 0 1041.725 149.77" enable-background="new 0 0 1041.725 149.77"
	 xml:space="preserve">
<g>
	<path fill="#FFD9C4" d="M0,73.637c0-8.873,1.56-17.713,4.68-26.521c3.12-8.805,7.661-16.674,13.625-23.61
		c5.961-6.933,13.313-12.585,22.049-16.953C49.091,2.184,59.004,0,70.101,0c13.173,0,24.441,2.983,33.802,8.944
		c9.361,5.964,16.258,13.729,20.697,23.298l-11.44,7.072c-2.36-4.853-5.236-8.944-8.633-12.273c-3.4-3.328-7.04-6.032-10.921-8.112
		c-3.884-2.08-7.904-3.569-12.064-4.472c-4.161-0.9-8.252-1.352-12.273-1.352c-8.876,0-16.713,1.804-23.506,5.408
		c-6.796,3.608-12.517,8.32-17.161,14.145c-4.647,5.824-8.148,12.377-10.504,19.657c-2.36,7.28-3.537,14.665-3.537,22.153
		c0,8.184,1.42,16.017,4.265,23.506c2.84,7.488,6.725,14.112,11.648,19.865c4.921,5.756,10.746,10.333,17.474,13.729
		c6.725,3.4,14.041,5.096,21.945,5.096c4.16,0,8.424-0.52,12.793-1.56c4.368-1.04,8.597-2.704,12.689-4.992
		c4.088-2.288,7.869-5.129,11.336-8.529c3.465-3.396,6.377-7.521,8.737-12.376l12.065,6.24c-2.36,5.548-5.688,10.437-9.985,14.665
		c-4.3,4.232-9.084,7.8-14.353,10.713c-5.272,2.912-10.853,5.132-16.745,6.656c-5.896,1.524-11.685,2.288-17.369,2.288
		c-10.125,0-19.417-2.217-27.874-6.656c-8.46-4.437-15.741-10.226-21.841-17.369c-6.104-7.141-10.853-15.253-14.249-24.338
		C1.696,92.326,0,83.069,0,73.637z"/>
	<path fill="#FFD9C4" d="M300.162,0.832v147.69h-14.353V79.461h-87.574v69.061h-14.561V0.832h14.561v65.732h87.574V0.832H300.162z"
		/>
	<path fill="#FFD9C4" d="M414.152,0.832h12.273l61.364,147.69h-15.393l-19.138-46.179h-66.356l-18.929,46.179h-15.601L414.152,0.832
		z M449.93,90.902l-29.746-73.013l-30.162,73.013H449.93z"/>
	<path fill="#FFD9C4" d="M540.208,148.522V0.832h62.405c6.377,0,12.236,1.352,17.576,4.056c5.338,2.704,9.949,6.24,13.834,10.609
		c3.879,4.368,6.896,9.328,9.047,14.873c2.148,5.548,3.225,11.165,3.225,16.849c0,5.408-0.799,10.576-2.393,15.497
		c-1.596,4.924-3.814,9.36-6.656,13.313c-2.844,3.953-6.275,7.281-10.297,9.985c-4.023,2.704-8.527,4.544-13.52,5.512l36.193,56.996
		h-16.434l-34.738-54.5h-43.682v54.5H540.208z M554.769,81.125h48.26c4.295,0,8.215-0.936,11.752-2.808
		c3.537-1.873,6.553-4.401,9.049-7.593c2.496-3.188,4.436-6.793,5.824-10.817c1.385-4.021,2.08-8.249,2.08-12.688
		c0-4.437-0.799-8.701-2.393-12.793c-1.596-4.089-3.744-7.661-6.447-10.713c-2.705-3.049-5.896-5.477-9.57-7.28
		c-3.676-1.801-7.523-2.704-11.543-2.704h-47.012V81.125z"/>
	<path fill="#FFD9C4" d="M707.244,148.522V0.832h14.561v134.793h85.286v12.897H707.244z"/>
	<path fill="#FFD9C4" d="M859.716,148.522V0.832h14.561v147.69H859.716z"/>
	<path fill="#FFD9C4" d="M1041.725,135.625v12.897h-99.223V0.832h97.351v12.897h-82.79V66.98h72.181v12.273h-72.181v56.372H1041.725
		z"/>
</g>
</svg>
