<?xml version="1.0" encoding="utf-8"?>
<!-- Generator: Adobe Illustrator 16.0.0, SVG Export Plug-In . SVG Version: 6.00 Build 0)  -->
<!DOCTYPE svg PUBLIC "-//W3C//DTD SVG 1.1//EN" "http://www.w3.org/Graphics/SVG/1.1/DTD/svg11.dtd">
<svg version="1.1" id="Layer_1" xmlns="http://www.w3.org/2000/svg" xmlns:xlink="http://www.w3.org/1999/xlink" x="0px" y="0px"
	 viewBox="407.04 0 1105.92 1078.621" enable-background="new 407.04 0 1105.92 1078.621"
	 xml:space="preserve">
<g>
	<path d="M960.005,0C654.65,0,407.04,247.565,407.04,552.965c0,244.314,158.441,451.589,378.151,524.706
		c27.635,5.119,37.781-11.995,37.781-26.601c0-13.186-0.514-56.745-0.752-102.95c-153.835,33.45-186.296-65.243-186.296-65.243
		c-25.153-63.915-61.396-80.91-61.396-80.91c-50.171-34.319,3.781-33.614,3.781-33.614c55.527,3.9,84.766,56.983,84.766,56.983
		c49.318,84.536,129.358,60.096,160.913,45.967c4.963-35.739,19.294-60.133,35.107-73.941
		c-122.82-13.982-251.933-61.396-251.933-273.277c0-60.371,21.602-109.699,56.974-148.424
		c-5.741-13.928-24.668-70.169,5.357-146.336c0,0,46.435-14.861,152.104,56.681c44.108-12.252,91.413-18.396,138.406-18.607
		c46.993,0.211,94.334,6.355,138.524,18.607c105.542-71.542,151.912-56.681,151.912-56.681
		c30.1,76.167,11.163,132.408,5.422,146.336c35.455,38.725,56.909,88.053,56.909,148.424c0,212.384-129.358,259.148-252.491,272.838
		c19.834,17.16,37.507,50.812,37.507,102.401c0,73.987-0.642,133.534-0.642,151.747c0,14.715,9.954,31.958,37.983,26.527
		c219.591-73.199,377.83-280.401,377.83-524.633C1512.96,247.565,1265.386,0,960.005,0z M614.144,787.71
		c-1.218,2.747-5.54,3.571-9.478,1.685c-4.011-1.804-6.264-5.549-4.963-8.305c1.19-2.83,5.521-3.617,9.522-1.722
		C613.246,781.172,615.535,784.953,614.144,787.71z M641.343,811.979c-2.637,2.445-7.792,1.31-11.29-2.555
		c-3.617-3.854-4.295-9.011-1.621-11.491c2.72-2.445,7.72-1.301,11.346,2.555C643.395,804.389,644.1,809.508,641.343,811.979z
		 M660.003,843.032c-3.388,2.354-8.928,0.146-12.353-4.771c-3.388-4.917-3.388-10.814,0.073-13.177
		c3.434-2.362,8.892-0.238,12.361,4.643C663.464,834.727,663.464,840.624,660.003,843.032z M691.561,878.995
		c-3.03,3.343-9.486,2.445-14.211-2.115c-4.835-4.459-6.181-10.786-3.141-14.129c3.067-3.352,9.56-2.408,14.321,2.115
		C693.328,869.316,694.793,875.689,691.561,878.995z M732.347,891.137c-1.337,4.331-7.554,6.3-13.817,4.459
		c-6.254-1.896-10.348-6.969-9.084-11.346c1.301-4.358,7.545-6.409,13.854-4.44C729.545,881.695,733.647,886.731,732.347,891.137z
		 M778.763,896.286c0.155,4.56-5.155,8.342-11.729,8.425c-6.611,0.146-11.959-3.544-12.032-8.031c0-4.605,5.191-8.351,11.803-8.461
		C773.379,888.091,778.763,891.754,778.763,896.286z M824.361,894.538c0.787,4.45-3.782,9.02-10.311,10.237
		c-6.419,1.172-12.361-1.575-13.177-5.988c-0.797-4.561,3.854-9.13,10.265-10.311C817.677,887.341,823.528,890.015,824.361,894.538z
		"/>
</g>
</svg>
