<?xml version="1.0" encoding="utf-8"?>
<!-- Generator: Adobe Illustrator 16.0.0, SVG Export Plug-In . SVG Version: 6.00 Build 0)  -->
<!DOCTYPE svg PUBLIC "-//W3C//DTD SVG 1.1//EN" "http://www.w3.org/Graphics/SVG/1.1/DTD/svg11.dtd">
<svg version="1.1" id="Layer_1" xmlns="http://www.w3.org/2000/svg" xmlns:xlink="http://www.w3.org/1999/xlink" x="0px" y="0px"
	 viewBox="-24 -105.667 205 205" enable-background="new -24 -105.667 205 205" xml:space="preserve">
<path d="M78.5-105.667C21.891-105.667-24-59.776-24-3.167c0,56.61,45.891,102.5,102.5,102.5c56.609,0,102.5-45.891,102.5-102.5
	C181-59.776,135.109-105.667,78.5-105.667z M48.436,49.021H25.207v-69.792h23.229V49.021z M36.822-30.297h-0.148
	c-7.799,0-12.839-5.363-12.839-12.063c0-6.844,5.195-12.056,13.14-12.056c7.947,0,12.842,5.211,12.992,12.056
	C49.967-35.661,44.922-30.297,36.822-30.297z M132.207,49.021H108.98v-37.34c0-9.376-3.361-15.778-11.77-15.778
	c-6.42,0-10.244,4.317-11.92,8.479c-0.617,1.493-0.768,3.579-0.768,5.664v38.975H61.295c0,0,0.305-63.243,0-69.791h23.229v9.885
	c3.086-4.753,8.607-11.526,20.936-11.526c15.291,0,26.748,9.977,26.748,31.414V49.021z"/>
</svg>
