<?xml version="1.0" encoding="utf-8"?>
<!-- Generator: Adobe Illustrator 16.0.0, SVG Export Plug-In . SVG Version: 6.00 Build 0)  -->
<!DOCTYPE svg PUBLIC "-//W3C//DTD SVG 1.1//EN" "http://www.w3.org/Graphics/SVG/1.1/DTD/svg11.dtd">
<svg version="1.1" id="Layer_1" xmlns="http://www.w3.org/2000/svg" xmlns:xlink="http://www.w3.org/1999/xlink" x="0px" y="0px"
	 width="2324px" height="605.232px" viewBox="0 0 2324 605.232" enable-background="new 0 0 2324 605.232" xml:space="preserve">
<g>
	<rect x="505.507" y="249.055" fill="#2E1D00" width="146.087" height="114.458"/>
	<polygon fill="#2E1D00" points="808.088,268.14 908.024,268.14 858.403,146.343 	"/>
	<polygon fill="#2E1D00" points="802.883,287.225 771.611,363.513 945.191,363.513 913.576,287.225 	"/>
	<path fill="#2E1D00" d="M1165.669,247.147c5.899-3.123,10.931-7.341,15.095-12.666c4.164-5.319,7.401-11.332,9.716-18.044
		c2.31-6.707,3.471-13.761,3.471-21.167c0-7.401-1.334-14.515-3.991-21.341c-2.662-6.821-6.246-12.779-10.757-17.871
		c-4.511-5.085-9.835-9.136-15.962-12.145c-6.132-3.003-12.552-4.511-19.259-4.511h-78.422v112.428h80.504
		C1153.231,251.831,1159.771,250.27,1165.669,247.147z"/>
	<polygon fill="#2E1D00" points="1065.56,273.345 1065.56,363.513 1195.903,363.513 1138.43,273.345 	"/>
	<path fill="#2E1D00" d="M1864.622,0h-0.999H134.892H-86v363.513h220.892h147.979c-7.673-1.851-15.006-4.606-21.996-8.276
		c-14.112-7.4-26.258-17.057-36.435-28.974c-10.183-11.912-18.104-25.445-23.77-40.599c-5.671-15.148-8.501-30.59-8.501-46.324
		c0-14.802,2.602-29.549,7.807-44.243c5.205-14.688,12.779-27.814,22.729-39.384c9.944-11.565,22.208-20.994,36.782-28.281
		c14.574-7.287,31.111-10.93,49.621-10.93c21.975,0,40.772,4.977,56.388,14.921c15.615,9.949,27.12,22.902,34.526,38.864
		l-19.085,11.798c-3.937-8.095-8.734-14.921-14.4-20.473c-5.672-5.552-11.744-10.063-18.218-13.533
		c-6.479-3.47-13.186-5.953-20.126-7.46c-6.939-1.502-13.766-2.255-20.473-2.255c-14.808,0-27.88,3.009-39.211,9.022
		c-11.338,6.018-20.88,13.88-28.628,23.596c-7.753,9.716-13.593,20.646-17.523,32.792c-3.937,12.145-5.899,24.463-5.899,36.955
		c0,13.652,2.37,26.719,7.114,39.211c4.738,12.492,11.218,23.542,19.432,33.138c8.209,9.602,17.925,17.236,29.148,22.902
		c11.218,5.671,23.422,8.502,36.608,8.502c6.939,0,14.054-0.868,21.34-2.604c7.287-1.734,14.341-4.511,21.167-8.328
		c6.821-3.817,13.127-8.556,18.912-14.227c5.779-5.666,10.638-12.546,14.574-20.646l20.126,10.41
		c-3.937,9.255-9.488,17.41-16.656,24.463c-7.173,7.059-15.154,13.013-23.943,17.871c-8.794,4.857-18.104,8.561-27.934,11.104
		c-1.38,0.356-2.756,0.683-4.129,0.989h148.998V117.889h24.29v109.652h146.087V117.889h23.943v245.624h70.056L848.34,117.889h20.473
		l102.055,245.624h70.402V117.889h104.101c10.638,0,20.413,2.256,29.321,6.767c8.902,4.511,16.596,10.41,23.075,17.697
		c6.474,7.287,11.505,15.561,15.095,24.811c3.584,9.255,5.378,18.625,5.378,28.107c0,9.022-1.333,17.643-3.99,25.851
		c-2.662,8.214-6.365,15.615-11.104,22.208c-4.744,6.593-10.47,12.145-17.177,16.656c-6.712,4.511-14.227,7.58-22.555,9.195
		l59.27,93.332h-0.03l93.669,151.777v90.941h23.932v-90.249l94.006-152.47h-25.979l-79.998,130.594l-78.694-129.594h52.972V117.889
		h24.29v224.855h142.271v20.769h35.215v241.719h23.923V363.513h11.3V117.889h24.29v245.624h59.45v241.719h23.922V406.949
		l158.284,198.283h20.849V363.513h37.27h0.999h520.379V0H1864.622z M1825.83,362.861h-23.41v201.69l-159.87-201.038h17.761V117.889
		h162.396v21.514h-138.106v88.832h120.409v20.473h-120.409v94.036h141.229V362.861z"/>
</g>
</svg>
