<?xml version="1.0" encoding="utf-8"?>
<!-- Generator: Adobe Illustrator 16.0.0, SVG Export Plug-In . SVG Version: 6.00 Build 0)  -->
<!DOCTYPE svg PUBLIC "-//W3C//DTD SVG 1.1//EN" "http://www.w3.org/Graphics/SVG/1.1/DTD/svg11.dtd">
<svg version="1.1" id="Layer_2" xmlns="http://www.w3.org/2000/svg" xmlns:xlink="http://www.w3.org/1999/xlink" x="0px" y="0px"
	 width="1600px" height="1600px" viewBox="0 0 1600 1600" enable-background="new 0 0 1600 1600" xml:space="preserve">
<g>
	<path fill="#5C8DBC" d="M1452.729,497.722c-0.014-24.672-5.289-46.476-15.959-65.187c-10.482-18.4-26.18-33.823-47.236-46.016
		C1215.725,286.299,1041.744,186.387,867.99,86.064c-46.84-27.042-92.259-26.057-138.755,1.375
		c-69.181,40.8-415.549,239.242-518.762,299.024c-42.506,24.607-63.19,62.266-63.2,111.212c-0.066,201.549,0,403.09-0.066,604.645
		c0.01,24.129,5.063,45.511,15.263,63.941c10.488,18.956,26.405,34.801,47.946,47.271
		c103.219,59.781,449.631,258.209,518.798,299.02c46.517,27.448,91.936,28.429,138.792,1.375
		c173.76-100.328,347.75-200.237,521.582-300.455c21.541-12.463,37.459-28.321,47.949-47.261
		c10.186-18.433,15.246-39.812,15.256-63.947C1452.793,1102.263,1452.793,699.274,1452.729,497.722"/>
	<path fill="#1A4674" d="M801.998,798.033L162.47,1166.261c10.488,18.956,26.405,34.801,47.946,47.271
		c103.219,59.781,449.631,258.209,518.798,299.02c46.517,27.448,91.936,28.429,138.792,1.375
		c173.76-100.328,347.75-200.237,521.582-300.455c21.541-12.463,37.459-28.321,47.949-47.261L801.998,798.033"/>
	<path fill="#1A4674" d="M612.577,907.105C649.791,972.073,719.749,1015.89,800,1015.89c80.746,0,151.104-44.375,188.129-110.035
		L801.998,798.033L612.577,907.105"/>
	<path fill="#1B598E" d="M1452.729,497.722c-0.014-24.672-5.289-46.476-15.959-65.187L801.998,798.033l635.539,368.177
		c10.186-18.433,15.246-39.812,15.256-63.947C1452.793,1102.263,1452.793,699.274,1452.729,497.722"/>
	<path fill="#F4F5F7" d="M1417.781,824.352h-49.662v49.673h-49.674v-49.673h-49.658v-49.659h49.658V725.03h49.674v49.662h49.662
		V824.352 M1236.564,824.352h-49.656v49.673h-49.664v-49.673h-49.662v-49.659h49.662V725.03h49.664v49.662h49.656V824.352"/>
	<path fill="#F4F5F7" d="M988.129,905.854C951.104,971.515,880.746,1015.89,800,1015.89c-80.251,0-150.209-43.816-187.423-108.784
		c-18.695-32.599-28.513-69.53-28.474-107.11c0-119.233,96.665-215.893,215.897-215.893c79.734,0,149.324,43.273,186.723,107.575
		l188.705-108.663C1100.424,453.541,960.391,366.433,800,366.433c-239.457,0-433.566,194.116-433.566,433.562
		c0,78.555,20.898,152.221,57.422,215.763c74.816,130.159,215.249,217.803,376.145,217.803
		c161.193,0,301.844-87.995,376.553-218.537L988.129,905.854"/>
</g>
</svg>
