<?xml version="1.0" encoding="utf-8"?>
<!-- Generator: Adobe Illustrator 16.0.0, SVG Export Plug-In . SVG Version: 6.00 Build 0)  -->
<!DOCTYPE svg PUBLIC "-//W3C//DTD SVG 1.1//EN" "http://www.w3.org/Graphics/SVG/1.1/DTD/svg11.dtd">
<svg version="1.1" id="Layer_1" xmlns="http://www.w3.org/2000/svg" xmlns:xlink="http://www.w3.org/1999/xlink" x="0px" y="0px"
	 width="1600px" height="1600px" viewBox="0 0 1600 1600" enable-background="new 0 0 1600 1600" xml:space="preserve">
<g id="surface1">
	<path fill="#283593" d="M761.599,75.322c23.777-13.256,53.022-13.256,76.801,0c117.249,65.867,470.501,264.152,587.888,330.02
		c23.777,13.392,38.399,37.99,38.399,64.638c0,131.734,0,528.307,0,660.042c0,26.648-14.622,51.246-38.399,64.637
		c-117.387,65.867-470.502,264.154-587.888,330.021c-23.778,13.256-53.023,13.256-76.801,0
		c-117.386-65.867-470.501-264.154-587.888-330.021c-23.778-13.391-38.4-37.988-38.4-64.637c0-131.734,0-528.307,0-660.042
		c0-26.648,14.622-51.246,38.4-64.638C290.96,339.474,644.349,141.189,761.599,75.322z"/>
	<path fill="#5C6BC0" d="M145.97,1163.912c-9.292-12.436-10.659-24.188-10.659-40.176c0-130.916,0-525.164,0-656.216
		c0-26.512,14.622-50.972,38.264-64.228c116.976-65.458,468.998-262.65,585.975-328.107c23.642-13.256,55.755-12.982,79.396,0.273
		c116.977,65.458,467.769,260.874,584.744,326.332c9.431,5.329,16.673,11.751,23.097,20.225L145.97,1163.912z"/>
	<path fill="#F4F5F7" d="M799.999,310.231c-270.303,0-489.771,219.467-489.771,489.77s219.468,489.771,489.771,489.771
		c270.302,0,489.771-219.469,489.771-489.771S1070.301,310.231,799.999,310.231z M799.999,1044.885
		c-135.152,0-244.885-109.732-244.885-244.884c0-135.151,109.732-244.885,244.885-244.885S1044.884,664.849,1044.884,800
		C1044.884,935.152,935.151,1044.885,799.999,1044.885z"/>
	<path fill="#3949AB" d="M1446.648,422.288c18.038,16.945,17.766,42.362,17.766,62.451c0,132.828-1.094,510.406,0.272,643.097
		c0.137,13.938-4.509,28.559-11.342,39.492L785.786,800L1446.648,422.288z"/>
</g>
</svg>
