<?xml version="1.0" encoding="utf-8"?>
<!-- Generator: Adobe Illustrator 16.0.0, SVG Export Plug-In . SVG Version: 6.00 Build 0)  -->
<!DOCTYPE svg PUBLIC "-//W3C//DTD SVG 1.1//EN" "http://www.w3.org/Graphics/SVG/1.1/DTD/svg11.dtd">
<svg version="1.1" id="Layer_5" xmlns="http://www.w3.org/2000/svg" xmlns:xlink="http://www.w3.org/1999/xlink" x="0px" y="0px"
	 width="1600px" height="1600px" viewBox="0 0 1600 1600" enable-background="new 0 0 1600 1600" xml:space="preserve">
<path fill="#264DE4" d="M794.869,1524.401L373.29,1407.368L279.341,353.642H1311.66l-94.046,1053.564L794.869,1524.401
	L794.869,1524.401z"/>
<path fill="#2965F1" d="M1137.099,1340.118l80.365-900.321H795.5v995.023L1137.099,1340.118z"/>
<path fill="#EBEBEB" d="M494.714,830.609l11.582,129.234H795.5V830.609H494.714z M471.438,569.037l11.748,129.235H795.5V569.037
	H471.438z M795.5,1166.248l-0.567,0.151l-143.927-38.865l-9.203-103.069H512.069l18.105,202.92l264.731,73.483l0.595-0.161V1166.248
	z"/>
<path d="M522.292,67.282h156.521v65.458H587.75v65.457h91.072v65.453H522.292V67.282z M710.122,67.282h156.523v56.919h-91.067
	v11.383h91.067v130.915H710.125v-59.772h91.068v-11.382h-91.076V67.282H710.122z M897.956,67.282h156.522v56.919h-91.066v11.383
	h91.066v130.915H897.956v-59.772h91.067v-11.382h-91.065V67.282H897.956z"/>
<path fill="#FFFFFF" d="M1095.46,830.609l23.327-261.573H795.056v129.235h182.104L965.4,830.609H795.056v129.234h159.139
	l-15.006,167.611l-144.138,38.903v134.451l264.941-73.425l1.942-21.836l30.372-340.235L1095.46,830.609L1095.46,830.609z"/>
</svg>
