<?xml version="1.0" encoding="utf-8"?>
<!-- Generator: Adobe Illustrator 16.0.0, SVG Export Plug-In . SVG Version: 6.00 Build 0)  -->
<!DOCTYPE svg PUBLIC "-//W3C//DTD SVG 1.0//EN" "http://www.w3.org/TR/2001/REC-SVG-20010904/DTD/svg10.dtd">
<svg version="1.0" xmlns="http://www.w3.org/2000/svg" xmlns:xlink="http://www.w3.org/1999/xlink" x="0px" y="0px" width="1600px"
	 height="1600px" viewBox="0 0 1600 1600" enable-background="new 0 0 1600 1600" xml:space="preserve">
<g id="Layer_2" display="none">
	<g id="layer1" transform="translate(-45.350156,-270.59786)" display="inline">
		<g id="g5734" transform="matrix(1.5309202,0,0,1.5309202,-1466.3857,-353.25212)">
			<path id="path5715" fill="#CC0000" d="M1508.961,449.389l81.493,807.756l410.309,152.974L1508.961,449.389z"/>
			<path id="path5717" fill="#73D216" d="M2000.011,1409.422l-732.699-284.212l-248.014,285.014L2000.011,1409.422z"/>
			<path id="path5719_1_" fill="#3465A4" d="M1019.514,1410.149l535.918-505.767L1509.7,449.624"/>
		</g>
	</g>
</g>
<g id="Layer_3">
	<path id="Eye_Mark" fill="#76B900" d="M619.133,609.807v-85.323c8.258-0.58,16.637-1.035,25.139-1.31
		c233.085-7.314,386.025,200.293,386.025,200.293S865.134,952.866,688.031,952.866c-23.416,0.104-46.688-3.623-68.898-11.034
		V683.519c90.746,10.971,108.999,51.042,163.546,141.972l121.343-102.297c0,0-88.588-116.159-237.87-116.159
		C650.44,607.116,634.745,608.042,619.133,609.807 M619.133,328.272v127.313c8.379-0.672,16.729-1.189,25.139-1.495
		c324.166-10.908,535.341,265.843,535.341,265.843s-242.562,294.973-495.269,294.973c-21.863-0.003-43.685-1.931-65.21-5.76v78.68
		c18.007,2.315,36.146,3.485,54.302,3.504c235.184,0,405.281-120.092,569.833-262.246c27.426,21.851,139.076,75.055,162.054,98.366
		c-156.6,131.029-521.505,236.74-728.29,236.74c-19.93,0-39.097-1.189-57.898-3.048v110.585h893.723V328.272H619.133z
		 M619.133,941.955v67.039C401.62,970.203,341.254,744.129,341.254,744.129s104.43-115.796,277.879-134.445v73.714h-0.337
		c-91.021-10.94-162.143,74.109-162.143,74.109s39.857,143.219,162.479,184.356 M232.803,734.47c0,0,128.898-190.21,386.33-209.895
		v-68.989C334.032,478.469,87.144,719.934,87.144,719.934s139.777,404.248,531.989,441.27v-73.377
		C331.35,1051.625,232.803,734.47,232.803,734.47z"/>
</g>
</svg>
