<?xml version="1.0" encoding="utf-8"?>
<!-- Generator: Adobe Illustrator 16.0.0, SVG Export Plug-In . SVG Version: 6.00 Build 0)  -->
<!DOCTYPE svg PUBLIC "-//W3C//DTD SVG 1.1//EN" "http://www.w3.org/Graphics/SVG/1.1/DTD/svg11.dtd">
<svg version="1.1" id="Layer_2" xmlns="http://www.w3.org/2000/svg" xmlns:xlink="http://www.w3.org/1999/xlink" x="0px" y="0px"
	 width="1600px" height="1600px" viewBox="0 0 1600 1600" enable-background="new 0 0 1600 1600" xml:space="preserve">
<g>
	<path fill="#364548" d="M333.637,1148.787v-85.523c0-11.239,7.025-20.265,18.661-20.265h3.22c11.63,0,18.624,9.037,18.624,20.265
		v180.052c0,43.906-21.692,78.844-59.493,101.101c-17.316,10.259-37.082,15.649-57.208,15.603h-8.034
		c-43.917,0-78.807-21.709-101.1-59.483c-10.273-17.313-15.664-37.087-15.597-57.22v-8.022c0-43.923,21.703-78.837,59.472-101.137
		c17.313-10.28,37.09-15.671,57.225-15.602h8.034C287.159,1118.555,312.374,1130.074,333.637,1148.787L333.637,1148.787z
		 M173.206,1239.297c0,31.717,15.373,55.563,43.164,70.771c11.238,6.148,23.438,9.451,36.26,9.451
		c31.132,0,54.224-14.688,70.151-41.067c7.406-12.273,10.856-25.702,10.856-39.977c0-27.493-13.016-48.95-35.171-64.887
		c-13.434-9.659-28.556-14.505-45.046-14.505c-33.933,0-58.354,17.144-73.01,47.597
		C175.464,1216.979,173.206,1227.908,173.206,1239.297L173.206,1239.297z M514.651,1118.555h5.613
		c46.927,0,82.617,22.763,105.234,63.727c9.042,16.387,13.883,34.272,13.883,53.012v8.022c0,43.906-21.65,78.891-59.509,101.106
		c-17.526,10.28-36.886,15.597-57.198,15.597h-8.023c-43.917,0-78.817-21.709-101.1-59.483
		c-10.279-17.312-15.675-37.086-15.613-57.22v-8.022c0-43.928,21.791-78.729,59.467-101.126
		C474.921,1123.761,494.297,1118.555,514.651,1118.555L514.651,1118.555z M438.443,1239.297c0,30.786,15.105,53.435,41.109,69.36
		c12.21,7.476,25.66,10.862,39.924,10.862c30.421,0,52.907-15.425,68.557-41.099c7.463-12.242,10.841-25.691,10.841-39.945
		c0-28.628-13.79-50.497-37.363-66.345c-12.916-8.692-27.294-13.047-42.851-13.047c-33.933,0-58.353,17.144-73.004,47.597
		C440.7,1216.979,438.443,1227.908,438.443,1239.297L438.443,1239.297z M807.757,1162.319c-6.115-2.864-17.563-3.815-24.169-4.067
		c-33.839-1.274-58.323,17.783-72.686,47.634c-4.961,10.298-7.224,21.195-7.224,32.59c0,34.691,18.216,58.98,49.18,73.789
		c11.311,5.405,25.915,6.429,38.276,6.429c10.872,0,26.239-6.659,35.889-11.242l1.672-0.796h7.49l0.826,0.168
		c9.21,1.918,16.162,7.757,16.162,17.666v4.011c0,24.66-45.066,30.306-62.263,31.509c-60.685,4.196-106.07-29.131-123.372-87.014
		c-3.006-10.052-4.36-20.035-4.36-30.51v-8.014c0-43.921,21.797-78.712,59.467-101.088c17.516-10.401,36.887-15.629,57.235-15.629
		h8.028c21.588,0,41.471,6.131,59.294,18.305l1.464,1.013l0.925,1.527c1.924,3.188,3.581,6.879,3.581,10.674v4.009
		c0,10.339-7.736,15.9-17.071,17.697l-0.774,0.138h-2.394C826.893,1171.117,813.15,1164.86,807.757,1162.319L807.757,1162.319z
		 M939.13,1189.744c15.734-15.753,31.519-31.476,47.488-46.969c4.448-4.321,21.294-22.616,27.927-22.616h7.256l0.824,0.172
		c9.242,1.919,16.162,7.768,16.162,17.698v4.004c0,6.775-7.935,14.647-12.31,19.283c-9.304,9.862-19.099,19.401-28.622,29.061
		l-48.935,49.678c21.07,21.117,42.118,42.249,63.016,63.527c5.796,5.875,11.547,11.791,17.254,17.751
		c2.013,2.117,4.981,4.752,6.67,7.685c1.813,2.749,2.927,5.849,2.927,9.157v4.182l-0.235,0.966
		c-2.272,9.243-8.138,16.696-18.377,16.696h-3.226c-6.701,0-14.27-7.58-18.858-11.912c-9.461-8.918-18.592-18.295-27.866-27.405
		l-31.095-30.525v48.788c0,11.238-7.034,20.269-18.653,20.269h-3.189c-11.635,0-18.659-9.03-18.659-20.269v-274.916
		c0-11.237,7.029-20.229,18.659-20.229h3.189c11.619,0,18.653,8.992,18.653,20.229V1189.744L939.13,1189.744z M1443.933,1120.159
		h4.025c12.146,0,20.254,8.185,20.254,20.265c0,16.769-16.03,21.06-29.897,21.06c-18.19,0-35.56,11.013-48.1,23.364
		c-15.634,15.414-22.476,35.157-22.476,56.858v98.053c0,11.236-7.021,20.26-18.659,20.26h-3.199
		c-11.641,0-18.655-9.018-18.655-20.26v-103.682c0-39.814,19.382-72.314,51.695-95.11c19.292-13.616,41.393-20.803,65.012-20.803
		V1120.159z M1156.064,1314.476c14.74,5.148,31.545,4.412,46.665,1.776c7.737-3.287,27.516-11.917,34.792-10.651l1.134,0.193
		l1.045,0.512c4.443,2.154,8.682,5.201,10.95,9.722c5.301,10.596,2.756,21.249-7.657,27.265l-3.465,2.001
		c-38.418,22.173-79.282,19.1-117.579-1.609c-18.311-9.899-32.319-24.592-42.652-42.505l-2.415-4.188
		c-24.666-42.714-21.336-87.645,6.481-128.264c9.602-14.038,22.151-24.886,36.823-33.369l5.551-3.203
		c36.182-20.888,74.959-19.456,112.118-1.124c19.982,9.857,36.171,24.55,47.325,43.875l2.007,3.481
		c8.103,14.039-2.396,26.27-13.23,34.633c-12.575,9.701-25.271,21.379-37.324,31.779
		C1209.756,1268.003,1182.921,1291.257,1156.064,1314.476L1156.064,1314.476z M1121.279,1290.045
		c30.055-25.77,60.12-51.563,90.097-77.442c10.245-8.834,21.478-18.002,31.639-27.29c-8.154-10.276-21.776-17.682-33.348-22.099
		c-23.364-8.901-46.4-5.912-67.824,6.455c-28.044,16.193-39.988,41.978-38.941,74.065c0.418,12.639,3.815,24.817,10.521,35.569
		C1115.786,1283.093,1118.425,1286.653,1121.279,1290.045z M902.698,478.422h119.521v122.18h60.428
		c27.912,0,56.612-4.972,83.041-13.925c12.988-4.406,27.561-10.532,40.373-18.242c-16.873-22.026-25.486-49.838-28.017-77.254
		c-3.449-37.294,4.076-85.831,29.313-115.02l12.565-14.53l14.971,12.038c37.691,30.279,69.393,72.597,74.979,120.836
		c45.386-13.35,98.674-10.192,138.677,12.896l16.412,9.471l-8.635,16.862c-33.834,66.026-104.57,86.485-173.723,82.862
		C1179.126,874.33,953.84,996.349,680.685,996.349c-141.128,0-270.599-52.756-344.33-177.963l-1.208-2.038l-10.741-21.858
		c-24.922-55.113-33.202-115.49-27.588-175.819l1.688-18.069h102.207v-122.18h119.515v-119.52h239.043v-119.52h143.427V478.422"/>
	<path fill="#22A0C8" d="M1289.921,523.625c8.013-62.285-38.597-111.204-67.501-134.433
		c-33.311,38.513-38.486,139.444,13.772,181.939c-29.165,25.905-90.618,49.384-153.546,49.384H316.665
		c-6.115,65.688,5.416,126.179,31.754,177.952l8.713,15.942c5.518,9.357,11.546,18.402,18.059,27.097
		c31.492,2.022,60.528,2.718,87.092,2.133h0.01c52.202-1.15,94.796-7.317,127.078-18.504c4.854-1.509,10.013,1.2,11.523,6.056
		c1.441,4.635-0.964,9.592-5.497,11.33c-4.297,1.494-8.771,2.885-13.392,4.206h-0.015c-25.419,7.261-52.677,12.143-87.845,14.313
		c2.091,0.036-2.174,0.313-2.185,0.313c-1.197,0.079-2.702,0.252-3.905,0.314c-13.841,0.779-28.779,0.94-44.053,0.94
		c-16.705,0-33.154-0.314-51.548-1.255l-0.471,0.314C455.807,933.4,555.599,976.423,680.69,976.423
		c264.734,0,489.284-117.355,588.72-380.818c70.544,7.239,138.341-10.752,169.182-70.955
		C1389.469,496.303,1326.296,505.34,1289.921,523.625"/>
	<path fill="#37B1D9" d="M1289.921,523.625c8.013-62.285-38.597-111.204-67.501-134.433
		c-33.311,38.513-38.486,139.444,13.772,181.939c-29.165,25.905-90.618,49.384-153.546,49.384H362.024
		c-3.126,100.599,34.205,176.959,100.253,223.123h0.015c52.202-1.15,94.796-7.317,127.078-18.504
		c4.854-1.509,10.013,1.2,11.523,6.056c1.441,4.635-0.964,9.592-5.497,11.33c-4.297,1.494-8.771,2.885-13.392,4.206h-0.015
		c-25.419,7.261-55.019,12.771-90.187,14.939c-0.01,0-0.852-0.812-0.862-0.812c90.097,46.218,220.734,46.051,370.512-11.482
		c167.94-64.521,324.223-187.438,433.261-328.027C1293.072,522.088,1291.473,522.846,1289.921,523.625"/>
	<path fill="#1B81A5" d="M318.103,700.326c4.756,35.188,15.053,68.134,30.316,98.141l8.713,15.942
		c5.516,9.358,11.545,18.402,18.059,27.097c31.497,2.022,60.533,2.718,87.102,2.133c52.202-1.15,94.796-7.317,127.078-18.504
		c4.854-1.509,10.013,1.2,11.523,6.056c1.441,4.635-0.964,9.592-5.497,11.33c-4.297,1.494-8.771,2.885-13.392,4.206h-0.015
		c-25.419,7.261-54.862,12.457-90.029,14.63c-1.207,0.074-3.314,0.09-4.532,0.158c-13.831,0.772-28.618,1.25-43.896,1.25
		c-16.701,0-33.782-0.319-52.165-1.256c63.821,71.734,164.23,114.914,289.321,114.914c226.64,0,423.821-86.023,538.265-276.097
		H318.103"/>
	<path fill="#1D91B4" d="M368.918,700.326c13.548,61.782,46.107,110.283,93.374,143.313c52.202-1.15,94.796-7.317,127.078-18.504
		c4.854-1.509,10.013,1.2,11.523,6.056c1.441,4.635-0.964,9.592-5.497,11.33c-4.297,1.494-8.771,2.885-13.392,4.206h-0.015
		c-25.419,7.261-55.484,12.457-90.657,14.63c90.092,46.207,220.352,45.544,370.12-11.984
		c90.603-34.812,177.805-86.632,256.037-149.046H368.918"/>
	<path fill="#23A3C2" d="M420.629,498.342h103.587v103.587H420.629V498.342z M429.259,506.977h8.174V593.3h-8.174V506.977z
		 M444.626,506.977h8.504V593.3h-8.499v-86.323H444.626z M460.317,506.977h8.504V593.3h-8.504V506.977z M476.019,506.977h8.499
		V593.3h-8.499V506.977z M491.715,506.977h8.5V593.3h-8.5V506.977L491.715,506.977z M507.407,506.977h8.18V593.3h-8.18V506.977z
		 M540.147,378.822h103.593v103.583H540.143V378.822H540.147z M548.783,387.457h8.17v86.318h-8.17V387.457z M564.15,387.457h8.499
		v86.318h-8.493v-86.318H564.15z M579.841,387.457h8.5v86.318h-8.5V387.457z M595.538,387.457h8.499v86.318h-8.499V387.457z
		 M611.234,387.457h8.504v86.318h-8.504V387.457z M626.925,387.457h8.186v86.318h-8.186V387.457z"/>
	<path fill="#34BBDE" d="M540.147,498.342h103.593v103.587H540.143V498.342H540.147z M548.783,506.977h8.17V593.3h-8.17V506.977z
		 M564.15,506.977h8.499V593.3h-8.493v-86.323H564.15z M579.841,506.977h8.5V593.3h-8.5V506.977z M595.538,506.977h8.499V593.3
		h-8.499V506.977z M611.234,506.977h8.504V593.3h-8.504V506.977z M626.925,506.977h8.186V593.3h-8.186V506.977z"/>
	<path fill="#23A3C2" d="M659.672,498.342H763.26v103.587H659.672V498.342z M668.302,506.977h8.17V593.3h-8.17V506.977z
		 M683.669,506.977h8.499V593.3h-8.499V506.977z M699.366,506.977h8.499V593.3h-8.499V506.977z M715.062,506.977h8.499V593.3h-8.499
		V506.977z M730.754,506.977h8.509V593.3h-8.509V506.977z M746.45,506.977h8.174V593.3h-8.174V506.977z"/>
	<path fill="#34BBDE" d="M659.672,378.822H763.26v103.583H659.672V378.822z M668.302,387.457h8.17v86.318h-8.17V387.457z
		 M683.669,387.457h8.499v86.318h-8.499V387.457z M699.366,387.457h8.499v86.318h-8.499V387.457z M715.062,387.457h8.499v86.318
		h-8.499V387.457z M730.754,387.457h8.509v86.318h-8.509V387.457z M746.45,387.457h8.174v86.318h-8.174V387.457z M779.191,498.342
		h103.588v103.587H779.191V498.342z M787.827,506.977h8.169V593.3h-8.169V506.977z M803.194,506.977h8.498V593.3h-8.498V506.977z
		 M818.885,506.977h8.5V593.3h-8.5V506.977z M834.58,506.977h8.507V593.3h-8.507V506.977z M850.278,506.977h8.504V593.3h-8.504
		V506.977z M865.975,506.977h8.175V593.3h-8.175V506.977z"/>
	<path fill="#23A3C2" d="M779.191,378.822h103.588v103.583H779.191V378.822z M787.827,387.457h8.169v86.318h-8.169V387.457z
		 M803.194,387.457h8.498v86.318h-8.498V387.457z M818.885,387.457h8.5v86.318h-8.5V387.457z M834.58,387.457h8.507v86.318h-8.507
		V387.457z M850.278,387.457h8.504v86.318h-8.504V387.457z M865.975,387.457h8.175v86.318h-8.175V387.457z"/>
	<path fill="#34BBDE" d="M779.191,259.298h103.588v103.599H779.191V259.298z M787.827,267.928h8.169v86.328h-8.169v-86.334V267.928z
		 M803.194,267.928h8.498v86.328h-8.498v-86.334V267.928z M818.885,267.928h8.5v86.328h-8.5v-86.334V267.928z M834.58,267.928h8.507
		v86.328h-8.507v-86.334V267.928z M850.278,267.928h8.504v86.328h-8.504v-86.334V267.928z M865.975,267.928h8.175v86.328h-8.175
		v-86.334V267.928z"/>
	<path fill="#23A3C2" d="M898.711,498.342h103.587v103.587H898.711V498.342z M907.335,506.977h8.181V593.3h-8.176v-86.323H907.335z
		 M922.703,506.977h8.503V593.3h-8.498v-86.323H922.703z M938.404,506.977h8.504V593.3h-8.504V506.977z M954.096,506.977h8.504
		V593.3h-8.504V506.977z M969.797,506.977h8.499V593.3h-8.499V506.977z M985.489,506.977h8.174V593.3h-8.174V506.977z"/>
	<path fill="#D3ECEC" d="M637.253,769.876c15.784-0.209,28.749,12.416,28.958,28.2c0.209,15.783-12.416,28.748-28.2,28.957
		c-0.256,0.003-0.512,0.003-0.768,0c-15.783-0.214-28.405-13.182-28.192-28.964C609.261,782.581,621.768,770.079,637.253,769.876"/>
	<path fill="#364548" d="M637.253,777.982c2.614,0,5.107,0.491,7.407,1.386c-3.989,2.315-5.346,7.428-3.03,11.417
		c1.491,2.567,4.233,4.151,7.201,4.159c3.163,0,5.906-1.751,7.329-4.343c4.333,10.438-0.617,22.412-11.054,26.745
		c-10.438,4.332-22.413-0.616-26.746-11.054c-4.333-10.438,0.616-22.412,11.055-26.745
		C631.9,778.515,634.563,777.983,637.253,777.982 M131.788,710.654h1329.353c-28.942-7.339-91.577-17.259-81.248-55.196
		c-52.637,60.904-179.561,42.73-211.598,12.701c-35.668,51.736-243.335,32.067-257.818-8.237
		c-44.722,52.483-183.292,52.483-228.015,0c-14.495,40.305-222.155,59.974-257.83,8.232
		c-32.03,30.034-158.951,48.208-211.586-12.691c10.328,37.933-52.306,47.853-81.258,55.196"/>
	<path fill="#BDD9D7" d="M713.217,975.807c-70.773-33.582-109.614-79.241-131.227-129.075c-26.292,7.503-57.889,12.3-94.608,14.358
		c-13.831,0.774-28.382,1.172-43.645,1.172c-17.604,0-36.155-0.523-55.63-1.552c64.903,64.865,144.744,114.805,292.583,115.713
		C691.604,976.423,702.434,976.214,713.217,975.807"/>
	<path fill="#D3ECEC" d="M608.276,892.719c-9.79-13.292-19.288-29.996-26.271-45.997c-26.292,7.513-57.899,12.31-94.624,14.374
		c25.225,13.69,61.296,26.376,120.899,31.623"/>
</g>
</svg>
