<?xml version="1.0" encoding="utf-8"?>
<!-- Generator: Adobe Illustrator 16.0.0, SVG Export Plug-In . SVG Version: 6.00 Build 0)  -->
<!DOCTYPE svg PUBLIC "-//W3C//DTD SVG 1.1//EN" "http://www.w3.org/Graphics/SVG/1.1/DTD/svg11.dtd">
<svg version="1.1" id="Layer_2" xmlns="http://www.w3.org/2000/svg" xmlns:xlink="http://www.w3.org/1999/xlink" x="0px" y="0px"
	 width="1600px" height="1600px" viewBox="0 0 1600 1600" enable-background="new 0 0 1600 1600" xml:space="preserve">
<g id="Elasticsearch_1_">
	<g>
		<path fill="#00A9E5" d="M1133.757,582.326H754.651c1.813,9.071,5.44,18.142,7.256,25.398
			c12.695,43.532,19.95,88.881,23.582,136.044c1.812,18.135,1.812,38.093,1.812,56.228c0,18.142,0,38.093-1.812,56.234
			c-3.628,47.158-10.887,92.506-23.582,136.039c-1.815,9.07-5.443,18.141-7.256,25.396h379.105
			c119.719,0,215.854-97.951,215.854-217.669C1349.611,680.278,1253.476,582.326,1133.757,582.326z"/>
		<path fill="#353535" d="M785.489,856.23c1.812-18.141,1.812-38.092,1.812-56.234c0-18.135,0-38.093-1.812-56.228
			c-3.632-47.164-10.887-92.512-23.582-136.044c-1.815-9.071-5.443-18.135-7.256-25.398H168.76
			c-21.767,68.93-32.649,141.492-32.649,217.67c0,76.185,10.883,148.74,32.649,217.669h585.892c1.813-9.07,5.44-18.143,7.256-25.396
			C774.603,948.736,781.857,903.389,785.489,856.23z"/>
	</g>
	<g>
		<path fill="#00BFB3" d="M1199.056,1090.221H727.442c-14.512,32.652-30.834,63.49-48.977,92.512
			c-27.206,45.348-59.859,85.25-96.136,123.342c-12.695,12.695-25.395,23.582-38.093,36.277
			c-25.395,23.582-54.416,43.533-83.438,63.49c114.274,76.186,252.131,119.719,399.059,119.719
			c252.132,0,473.426-128.789,604.031-322.877C1396.768,1133.754,1302.454,1090.221,1199.056,1090.221z"/>
		<path fill="#019B8F" d="M678.466,1182.732c18.143-29.021,34.465-59.859,48.977-92.512H195.969
			c56.231,128.789,148.74,239.436,266.643,315.621c29.021-19.957,56.231-39.908,83.441-63.49
			c12.695-10.879,25.394-23.582,38.093-36.277C618.606,1269.799,651.26,1228.08,678.466,1182.732z"/>
	</g>
	<g>
		<path fill="#F9B110" d="M582.33,293.917c-12.695-12.695-25.395-23.582-38.093-36.277c-25.395-23.582-54.416-43.532-83.438-63.483
			C344.709,270.335,252.2,380.99,194.157,509.772H725.63c-14.511-32.646-30.838-63.483-48.976-92.505
			C651.26,371.918,618.606,330.195,582.33,293.917z"/>
		<path fill="#FED10A" d="M859.858,74.439c-146.928,0-284.784,43.532-399.059,119.718c29.021,19.951,56.231,39.901,83.438,63.483
			c12.698,10.887,25.397,23.582,38.093,36.277c36.276,38.093,68.93,78.001,96.136,123.35c18.143,29.021,34.465,59.859,48.977,92.505
			h471.613c103.392,0,197.712-43.533,264.834-112.463C1333.284,203.221,1111.99,74.439,859.858,74.439z"/>
	</g>
</g>
</svg>
