<?xml version="1.0" encoding="utf-8"?>
<!-- Generator: Adobe Illustrator 16.0.0, SVG Export Plug-In . SVG Version: 6.00 Build 0)  -->
<!DOCTYPE svg PUBLIC "-//W3C//DTD SVG 1.1//EN" "http://www.w3.org/Graphics/SVG/1.1/DTD/svg11.dtd">
<svg version="1.1" id="Layer_9" xmlns="http://www.w3.org/2000/svg" xmlns:xlink="http://www.w3.org/1999/xlink" x="0px" y="0px"
	 width="1600px" height="1600px" viewBox="0 0 1600 1600" enable-background="new 0 0 1600 1600" xml:space="preserve">
<g>
	<g>
		<g>
			<path fill="#0096E6" d="M343.062,343.091v913.799h913.798V343.091H343.062z M1199.75,1199.775H400.175V400.204h799.575V1199.775z
				"/>
		</g>
	</g>
	<g>
		<g>
			<path fill="#0096E6" d="M999.856,528.706H600.068c-47.117,0-85.668,38.553-85.668,85.668v399.786
				c0,47.12,38.552,85.668,85.668,85.668h399.788c47.403,0,85.667-38.548,85.667-85.668V614.374
				C1085.523,567.258,1047.26,528.706,999.856,528.706z M1028.41,1014.16c0,15.708-12.85,28.557-28.554,28.557H600.068
				c-15.706,0-28.556-12.849-28.556-28.557V614.374c0-15.705,12.85-28.556,28.556-28.556h399.788
				c15.704,0,28.554,12.851,28.554,28.556V1014.16z"/>
		</g>
		<g>
			<path fill="#D0E8F9" d="M1028.41,614.374v399.786c0,15.708-12.85,28.557-28.554,28.557H600.068
				c-15.706,0-28.556-12.849-28.556-28.557V614.374c0-15.705,12.85-28.556,28.556-28.556h399.788
				C1015.561,585.818,1028.41,598.669,1028.41,614.374z"/>
		</g>
	</g>
	<g>
		<g>
			<g>
				<g>
					<rect x="1256.898" y="414.491" fill="#0096E6" width="199.894" height="57.113"/>
				</g>
			</g>
			<g>
				<g>
					<rect x="1256.898" y="557.272" fill="#0096E6" width="199.894" height="57.112"/>
				</g>
			</g>
			<g>
				<g>
					<rect x="1256.898" y="700.053" fill="#0096E6" width="199.894" height="57.113"/>
				</g>
			</g>
			<g>
				<g>
					<rect x="1256.898" y="842.835" fill="#0096E6" width="199.894" height="57.112"/>
				</g>
			</g>
			<g>
				<g>
					<rect x="1256.898" y="985.615" fill="#0096E6" width="199.894" height="57.111"/>
				</g>
			</g>
			<g>
				<g>
					<rect x="1256.898" y="1128.395" fill="#0096E6" width="199.894" height="57.114"/>
				</g>
			</g>
		</g>
		<g>
			<g>
				<g>
					<rect x="143.208" y="414.491" fill="#0096E6" width="199.894" height="57.113"/>
				</g>
			</g>
			<g>
				<g>
					<rect x="143.208" y="557.272" fill="#0096E6" width="199.894" height="57.112"/>
				</g>
			</g>
			<g>
				<g>
					<rect x="143.208" y="700.053" fill="#0096E6" width="199.894" height="57.113"/>
				</g>
			</g>
			<g>
				<g>
					<rect x="143.208" y="842.835" fill="#0096E6" width="199.894" height="57.112"/>
				</g>
			</g>
			<g>
				<g>
					<rect x="143.208" y="985.615" fill="#0096E6" width="199.894" height="57.111"/>
				</g>
			</g>
			<g>
				<g>
					<rect x="143.208" y="1128.395" fill="#0096E6" width="199.894" height="57.114"/>
				</g>
			</g>
		</g>
	</g>
	<g>
		<g>
			<g>
				<g>
					<rect x="1128.395" y="143.208" fill="#0096E6" width="57.114" height="199.894"/>
				</g>
			</g>
			<g>
				<g>
					<rect x="985.615" y="143.208" fill="#0096E6" width="57.111" height="199.894"/>
				</g>
			</g>
			<g>
				<g>
					<rect x="842.835" y="143.208" fill="#0096E6" width="57.112" height="199.894"/>
				</g>
			</g>
			<g>
				<g>
					<rect x="700.053" y="143.208" fill="#0096E6" width="57.113" height="199.894"/>
				</g>
			</g>
			<g>
				<g>
					<rect x="557.272" y="143.208" fill="#0096E6" width="57.112" height="199.894"/>
				</g>
			</g>
			<g>
				<g>
					<rect x="414.491" y="143.208" fill="#0096E6" width="57.113" height="199.894"/>
				</g>
			</g>
		</g>
		<g>
			<g>
				<g>
					<rect x="1128.395" y="1256.898" fill="#0096E6" width="57.114" height="199.894"/>
				</g>
			</g>
			<g>
				<g>
					<rect x="985.615" y="1256.898" fill="#0096E6" width="57.111" height="199.894"/>
				</g>
			</g>
			<g>
				<g>
					<rect x="842.835" y="1256.898" fill="#0096E6" width="57.112" height="199.894"/>
				</g>
			</g>
			<g>
				<g>
					<rect x="700.053" y="1256.898" fill="#0096E6" width="57.113" height="199.894"/>
				</g>
			</g>
			<g>
				<g>
					<rect x="557.272" y="1256.898" fill="#0096E6" width="57.112" height="199.894"/>
				</g>
			</g>
			<g>
				<g>
					<rect x="414.491" y="1256.898" fill="#0096E6" width="57.113" height="199.894"/>
				</g>
			</g>
		</g>
	</g>
	<g>
		<g>
			
				<rect x="449.2" y="448.863" transform="matrix(-0.707 0.7072 -0.7072 -0.707 1153.3923 477.6311)" fill="#0096E6" width="57.106" height="57.767"/>
		</g>
	</g>
	<g>
		<g>
			
				<rect x="1093.708" y="1093.391" transform="matrix(-0.7071 0.7071 -0.7071 -0.7071 2709.3767 1122.2599)" fill="#0096E6" width="57.106" height="57.738"/>
		</g>
	</g>
</g>
</svg>
