<?xml version="1.0" encoding="utf-8"?>
<!-- Generator: Adobe Illustrator 16.0.0, SVG Export Plug-In . SVG Version: 6.00 Build 0)  -->
<!DOCTYPE svg PUBLIC "-//W3C//DTD SVG 1.1//EN" "http://www.w3.org/Graphics/SVG/1.1/DTD/svg11.dtd">
<svg version="1.1" id="Layer_21" xmlns="http://www.w3.org/2000/svg" xmlns:xlink="http://www.w3.org/1999/xlink" x="0px" y="0px"
	 width="1600px" height="1600px" viewBox="0 0 1600 1600" enable-background="new 0 0 1600 1600" xml:space="preserve">
<path fill="#31476E" d="M1474.467,41.848H125.54c-46.229,0-83.686,37.462-83.686,83.685v1348.929
	c0,46.216,37.457,83.685,83.686,83.685h1348.927v0.006c46.211,0,83.68-37.475,83.68-83.686V125.533
	C1558.146,79.305,1520.672,41.848,1474.467,41.848z M1134.251,370.044l-121.175,0.057c-95.015,0-113.409,45.149-113.409,111.403
	V627.61h226.608l-29.509,228.842H899.672v587.188H663.348V856.452h-197.6V627.61h197.6V458.848
	c0-195.851,119.614-302.494,294.33-302.494c83.68,0,155.616,6.232,176.573,9.016V370.044z"/>
</svg>
