<?xml version="1.0" encoding="utf-8"?>
<!-- Generator: Adobe Illustrator 16.0.0, SVG Export Plug-In . SVG Version: 6.00 Build 0)  -->
<!DOCTYPE svg PUBLIC "-//W3C//DTD SVG 1.1//EN" "http://www.w3.org/Graphics/SVG/1.1/DTD/svg11.dtd">
<svg version="1.1" id="Layer_16" xmlns="http://www.w3.org/2000/svg" xmlns:xlink="http://www.w3.org/1999/xlink" x="0px" y="0px"
	 width="1600px" height="1600px" viewBox="0 0 1600 1600" enable-background="new 0 0 1600 1600" xml:space="preserve">
<path fill="#DE4C36" d="M1505.491,734.683L865.297,94.523c-36.846-36.869-96.643-36.869-133.535,0L598.823,227.462l168.64,168.64
	c39.189-13.242,84.128-4.358,115.367,26.88c31.388,31.439,40.208,76.763,26.646,116.077l162.522,162.529
	c39.321-13.546,84.689-4.783,116.095,26.673c43.891,43.874,43.891,114.983,0,158.885c-43.903,43.909-115.012,43.909-158.938,0
	c-33.014-33.048-41.17-81.532-24.457-122.205L853.132,613.376l-0.017,398.858c10.986,5.433,21.021,12.608,29.714,21.249
	c43.893,43.874,43.893,114.988,0,158.926c-43.902,43.886-115.045,43.886-158.885,0c-43.891-43.938-43.891-115.046,0-158.921
	c10.518-10.522,23.018-18.857,36.777-24.52V606.394c-13.779-5.625-26.287-13.963-36.777-24.52
	c-33.255-33.209-41.251-82.003-24.211-122.835l-166.24-166.257L94.524,731.721c-36.886,36.904-36.886,96.707,0,133.581
	l640.205,640.171c36.858,36.874,96.644,36.874,133.547,0l637.209-637.198c36.875-36.887,36.875-96.723,0-133.592"/>
</svg>
