<?xml version="1.0" encoding="utf-8"?>
<!-- Generator: Adobe Illustrator 16.0.0, SVG Export Plug-In . SVG Version: 6.00 Build 0)  -->
<!DOCTYPE svg PUBLIC "-//W3C//DTD SVG 1.1//EN" "http://www.w3.org/Graphics/SVG/1.1/DTD/svg11.dtd">
<svg version="1.1" id="Layer_19" xmlns="http://www.w3.org/2000/svg" xmlns:xlink="http://www.w3.org/1999/xlink" x="0px" y="0px"
	 width="1600px" height="1600px" viewBox="0 0 1600 1600" enable-background="new 0 0 1600 1600" xml:space="preserve">
<g>
	<path fill="#31476E" d="M1474.521,428.024c-69.66-119.358-164.154-213.855-283.505-283.51
		C1071.652,74.855,941.346,40.036,799.992,40.036c-141.331,0-271.686,34.83-391.025,104.478
		c-119.358,69.651-213.846,164.151-283.508,283.51C55.808,547.377,20.979,677.713,20.979,819.027
		c0,169.75,49.525,322.394,148.601,457.97c99.064,135.588,227.041,229.409,383.92,281.472c18.26,3.39,31.779,1.006,40.569-7.092
		c8.793-8.104,13.184-18.26,13.184-30.416c0-2.03-0.174-20.279-0.512-54.773c-0.349-34.493-0.512-64.587-0.512-90.262l-23.331,4.039
		c-14.875,2.724-33.642,3.879-56.297,3.553c-22.645-0.319-46.152-2.692-70.493-7.105c-24.351-4.372-46.999-14.517-67.963-30.407
		c-20.954-15.89-35.83-36.692-44.623-62.374l-10.143-23.339c-6.762-15.54-17.405-32.804-31.947-51.727
		c-14.541-18.937-29.246-31.776-44.122-38.539l-7.102-5.083c-4.732-3.379-9.123-7.455-13.184-12.181
		c-4.057-4.732-7.095-9.462-9.123-14.204c-2.033-4.739-0.349-8.632,5.069-11.682c5.417-3.054,15.21-4.535,29.417-4.535l20.279,3.033
		c13.524,2.709,30.253,10.804,50.21,24.338c19.946,13.521,36.341,31.101,49.192,52.729c15.561,27.732,34.308,48.868,56.296,63.405
		c21.97,14.544,44.121,21.802,66.433,21.802c22.311,0,41.582-1.692,57.817-5.059c16.218-3.379,31.435-8.465,45.643-15.22
		c6.085-45.329,22.656-80.148,49.695-104.487c-38.541-4.049-73.19-10.148-103.968-18.26c-30.759-8.122-62.546-21.303-95.338-39.58
		c-32.809-18.249-60.027-40.912-81.659-67.949c-21.636-27.052-39.392-62.565-53.244-106.51
		c-13.861-43.958-20.791-94.671-20.791-152.146c0-81.838,26.717-151.479,80.138-208.963
		c-25.025-61.526-22.663-130.499,7.095-206.911c19.611-6.092,48.694-1.521,87.235,13.689c38.548,15.217,66.77,28.252,84.697,39.06
		c17.929,10.804,32.292,19.958,43.113,27.384c62.902-17.576,127.814-26.366,194.754-26.366c66.94,0,131.868,8.79,194.77,26.366
		l38.546-24.333c26.361-16.235,57.482-31.116,93.301-44.64c35.84-13.519,63.249-17.242,82.192-11.149
		c30.42,76.417,33.126,145.385,8.098,206.912c53.416,57.482,80.145,127.141,80.145,208.961c0,57.475-6.96,108.348-20.796,152.647
		c-13.857,44.309-31.767,79.784-53.735,106.509c-21.996,26.719-49.385,49.204-82.178,67.45
		c-32.801,18.26-64.595,31.444-95.355,39.563c-30.774,8.126-65.42,14.225-103.966,18.284c35.152,30.42,52.736,78.435,52.736,144.024
		v214.008c0,12.157,4.226,22.306,12.684,30.417c8.452,8.098,21.803,10.481,40.065,7.088
		c156.897-52.06,284.872-145.881,383.933-281.468c99.054-135.58,148.598-288.224,148.598-457.971
		C1578.986,677.703,1544.139,547.377,1474.521,428.024z"/>
</g>
</svg>
