<?xml version="1.0" encoding="utf-8"?>
<!-- Generator: Adobe Illustrator 16.0.0, SVG Export Plug-In . SVG Version: 6.00 Build 0)  -->
<!DOCTYPE svg PUBLIC "-//W3C//DTD SVG 1.1//EN" "http://www.w3.org/Graphics/SVG/1.1/DTD/svg11.dtd">
<svg version="1.1" id="Layer_3" xmlns="http://www.w3.org/2000/svg" xmlns:xlink="http://www.w3.org/1999/xlink" x="0px" y="0px"
	 width="1600px" height="1600px" viewBox="0 0 1600 1600" enable-background="new 0 0 1600 1600" xml:space="preserve">
<g transform="translate(8)">
	<path fill="#F6D2A2" d="M267.983,859.444c2.057,43.202,45.715,22.856,64.687,9.6c18.973-13.257,22.857-2.059,25.602-27.43
		c1.686-16.554,2.373-33.193,2.057-49.83c-28.805-2.946-57.722,4.425-81.603,20.801c-11.886,8.686-34.058,36.115-10.972,45.716"/>
	<path fill="#010101" d="M290.384,890.76c-4.272,0.059-8.499-0.88-12.343-2.744c-8.958-5.168-14.39-14.804-14.173-25.144
		c-5.747-2.863-9.629-8.469-10.286-14.857c1.659-15.397,10.022-29.279,22.858-37.943c24.659-16.978,54.569-24.596,84.345-21.487
		h3.43v3.429c0.478,13.04,0.096,26.097-1.143,39.087v11.429c-1.144,17.829-4.572,20.572-13.716,22.857
		c-4.878,1.51-9.501,3.744-13.714,6.628C322.49,882.176,306.868,888.646,290.384,890.76z M348.442,796.355
		c-24.006-0.37-47.518,6.827-67.202,20.572c-10.336,7.139-17.28,18.215-19.2,30.63c0.572,4.358,3.594,8.003,7.771,9.371h2.286v2.516
		c-0.672,8.074,2.98,15.9,9.6,20.571c17.527,2.72,35.357-2.47,48.688-14.171c4.769-3.346,10.007-5.963,15.543-7.772
		c5.943-2.058,7.314-2.514,8.229-16.686v-11.429c1.069-11.397,1.527-22.843,1.37-34.288h-7.085V796.355z"/>
	<path fill="#C7B199" d="M267.983,859.444c6.532-1.447,12.495-4.785,17.143-9.601"/>
	<path fill="#010101" d="M267.983,863.558c-2.209,0.695-4.563-0.533-5.258-2.742s0.534-4.563,2.743-5.257h2.743
		c4.829-1.12,9.211-3.67,12.571-7.314c1.389-1.831,3.997-2.19,5.828-0.801c1.831,1.389,2.189,3.998,0.801,5.828l0,0
		c-4.321,4.966-10.067,8.478-16.458,10.058h-2.971V863.558z"/>
	<path fill="#74CDDD" d="M367.644,345.369c-165.263-45.715-42.287-256.693,91.431-170.291L367.644,345.369z"/>
	<path fill="#010101" d="M369.701,350.17H366.5c-47.087-13.257-76.116-41.144-81.603-78.403
		c-3.966-41.316,15.772-81.323,50.974-103.316c38.366-24.273,87.668-22.641,124.347,4.114l3.199,2.057L369.701,350.17z
		 M392.559,158.621c-18.759,0.024-37.104,5.505-52.803,15.771c-32.582,20.22-50.91,57.141-47.314,95.318
		c5.028,33.144,30.629,58.287,72.459,70.859l86.86-163.891c-17.57-10.988-37.798-16.993-58.518-17.372L392.559,158.621z"/>
	<path fill="#74CDDD" d="M1101.838,159.307c130.748-91.432,248.923,114.29,96.918,167.548L1101.838,159.307z"/>
	<path fill="#010101" d="M1196.929,331.884l-100.576-173.72l2.973-2.058c34.234-27.441,81.678-31.418,120.004-10.057
		c36.05,21.113,57.17,60.701,54.629,102.403c-2.285,22.857-14.629,61.943-73.83,82.288L1196.929,331.884z M1107.324,160.45
		l93.261,161.376c34.605-9.385,60.251-38.54,65.145-74.06c2.441-38.625-17.104-75.326-50.516-94.859
		C1181.047,133.319,1138.435,136.299,1107.324,160.45L1107.324,160.45z"/>
	<path fill="#F6D2A2" d="M1129.954,1390.66c33.144,20.572,93.946,82.746,44.116,112.919c-47.773,43.888-74.745-48.23-116.804-60.802
		C1073.583,1416.413,1099.749,1397.654,1129.954,1390.66z"/>
	<path fill="#010101" d="M1148.697,1519.351h-1.829c-18.972-1.143-34.515-19.657-49.602-37.259
		c-10.423-15.166-24.599-27.37-41.144-35.429l-5.485-1.601l3.428-5.715c17.005-27.121,44.032-46.427,75.203-53.716h2.971
		c21.259,13.259,65.145,51.659,64.917,86.403c-0.269,13.981-8.162,26.698-20.572,33.145
		C1169.502,1513.371,1159.488,1518.459,1148.697,1519.351z M1063.667,1440.721c15.505,9.119,28.967,21.336,39.544,35.887
		c9.992,16.416,25.577,28.672,43.887,34.516c8.75-0.375,16.986-4.246,22.857-10.744c10.164-4.969,16.692-15.205,16.916-26.515
		c0-27.888-35.203-62.86-59.659-78.633c-26.058,6.7-48.651,22.933-63.318,45.489H1063.667z"/>
	<path fill="#010101" d="M1174.07,1507.922c-1.553-0.011-2.968-0.895-3.657-2.286c-2.418-5.059-4.555-10.248-6.4-15.543
		c-2.782-10.346-7.948-19.897-15.087-27.887c-1.642-1.578-1.691-4.188-0.114-5.829c1.578-1.641,4.188-1.692,5.83-0.114
		c7.893,8.617,13.682,18.945,16.912,30.173c1.793,4.984,3.854,9.867,6.173,14.629c0.996,2.021,0.18,4.466-1.827,5.486
		L1174.07,1507.922z"/>
	<path fill="#F6D2A2" d="M536.335,1460.835c-39.088,5.942-61.031,41.144-93.489,58.973c-11.502,10.619-29.435,9.902-40.052-1.601
		c-2.455-2.657-4.377-5.761-5.664-9.143c-4.598,0.11-8.986-1.916-11.886-5.485c-28.345-45.716,29.486-77.489,59.888-99.89
		C487.876,1395.461,514.162,1431.805,536.335,1460.835z"/>
	<path fill="#010101" d="M422.273,1530.779c-2.428,0.322-4.887,0.322-7.315,0c-8.666-2.804-15.835-8.984-19.885-17.144
		c-4.48-0.032-8.662-2.25-11.201-5.943c-27.43-43.2,19.201-75.888,50.059-97.602l10.744-7.771
		c43.201-8.687,70.63,26.972,92.574,55.772l6.171,8.229h-6.856c-22.059,5.27-42.134,16.775-57.831,33.144
		c-10.528,9.678-22.016,18.257-34.287,25.6C437.659,1528.82,430.029,1530.787,422.273,1530.779z M394.844,1504.265
		c1.582-0.347,3.22-0.347,4.801,0h1.143l1.829,3.657c3.003,6.532,8.53,11.563,15.314,13.944c8.042,1.207,16.239-0.759,22.857-5.486
		c11.855-7.087,22.96-15.357,33.145-24.687c15.429-15.423,34.313-26.941,55.088-33.603c-21.03-27.429-45.716-57.145-81.604-50.286
		l-10.286,7.313c-31.543,22.858-70.631,49.831-48.002,86.176c1.028,1.742,2.797,2.921,4.801,3.199L394.844,1504.265z"/>
	<path fill="#010101" d="M397.816,1513.407c-2.27,0.133-4.215-1.6-4.347-3.869c-0.031-0.549,0.047-1.1,0.23-1.616
		c1.687-10.979,6.262-21.314,13.259-29.943c3.309-4.538,6.215-9.357,8.686-14.4c0.947-2.084,3.403-3.004,5.486-2.059
		c2.083,0.948,3.004,3.404,2.057,5.486c-2.654,5.523-5.79,10.801-9.371,15.771c-6.035,7.767-9.9,16.995-11.2,26.744
		c-0.095,2.271-2.012,4.035-4.282,3.941C398.16,1513.456,397.987,1513.437,397.816,1513.407L397.816,1513.407z M374.501,287.311
		c-22.858-11.429-37.716-27.201-24.459-52.345c13.258-25.143,35.202-20.8,57.146-9.37L374.501,287.311z M1164.241,265.367
		c22.857-11.428,37.715-27.2,24.457-52.345c-13.257-25.143-35.2-20.801-57.145-9.371L1164.241,265.367z"/>
	<path fill="#F6D2A2" d="M1314.417,853.959c-2.057,43.201-45.715,22.857-64.688,9.599c-18.973-13.257-22.858-2.057-25.602-27.43
		c-1.686-16.553-2.372-33.193-2.056-49.829c28.805-2.946,57.722,4.424,81.602,20.801c11.886,8.685,34.059,36.114,10.973,45.716"/>
	<path fill="#010101" d="M1292.017,884.359c-15.711-1.708-30.73-7.37-43.659-16.459c-4.215-2.883-8.837-5.117-13.715-6.627
		c-9.143-3.201-12.57-5.944-13.714-22.859v-11.429c-1.238-12.99-1.621-26.047-1.143-39.086v-5.486h3.427
		c29.778-3.109,59.688,4.509,84.348,21.486c12.835,8.664,21.198,22.546,22.857,37.943c-0.657,6.389-4.539,11.994-10.287,14.857
		c0.218,10.34-5.214,19.977-14.172,25.145C1301.608,883.88,1296.805,884.746,1292.017,884.359L1292.017,884.359z M1225.5,790.184
		c-0.154,11.445,0.304,22.891,1.371,34.288V835.9c0,13.943,2.058,14.4,8.229,16.686c5.536,1.81,10.774,4.428,15.544,7.772
		c13.313,11.729,31.157,16.922,48.688,14.172c6.618-4.672,10.271-12.498,9.599-20.571v-2.743h2.286
		c4.178-1.37,7.199-5.015,7.771-9.373c-1.92-12.415-8.864-23.491-19.201-30.63C1278.134,795.969,1251.933,788.553,1225.5,790.184
		L1225.5,790.184z"/>
	<path fill="#C7B199" d="M1314.417,853.959c-6.455-1.256-12.409-4.352-17.143-8.916"/>
	<path fill="#010101" d="M1314.417,858.072h-4.344c-6.399-2.036-11.998-6.033-15.999-11.428c-1.389-1.832-1.031-4.441,0.799-5.831
		c1.831-1.388,4.439-1.029,5.829,0.801c3.36,3.646,7.741,6.195,12.572,7.314h2.742c2.526,0.441,4.214,2.847,3.772,5.372
		C1319.348,856.825,1316.942,858.514,1314.417,858.072z"/>
	<path fill="#74CDDD" d="M774.742,71.989c165.492,0,320.011,22.858,401.386,182.864c72.458,178.063,45.715,370.297,57.829,558.418
		c9.6,161.604,30.629,348.354-44.344,498.301c-78.402,157.263-276.352,196.35-438.644,191.092
		c-127.547-4.571-281.609-45.716-353.611-162.747c-84.574-137.147-44.572-340.125-38.401-492.131
		c7.314-180.12-48.916-360.926,10.286-537.39C430.731,127.534,596.222,86.162,774.514,71.989"/>
	<path fill="#010101" d="M779.086,1507.922h-28.345c-68.135-1.913-135.451-15.361-199.093-39.772
		c-64.793-23.485-120.217-67.36-157.948-125.032c-68.572-110.633-56.229-263.323-45.715-398.185
		c2.743-33.829,5.257-66.06,6.4-96.232c1.211-63.958-1.537-127.93-8.229-191.548c-9.601-114.29-19.657-232.465,18.743-346.983
		c25.05-81.347,83.104-148.439,160.005-184.919c61.716-30.173,137.147-47.545,248.009-56.23
		c163.204-1.144,324.124,21.715,406.871,183.777c53.028,130.289,53.715,270.18,54.629,405.498c0,50.745,0,103.09,3.657,154.292
		c0,15.544,1.829,31.315,2.973,47.088c9.601,148.347,20.572,316.81-47.773,453.042
		C1107.782,1483.235,892.918,1507.922,779.086,1507.922z M774.742,76.104c-172.12,14.63-339.896,51.66-401.613,235.665
		c-37.944,112.918-27.887,230.179-18.516,342.868c6.715,63.923,9.464,128.201,8.23,192.464c-1.144,30.4-3.887,62.63-6.401,96.689
		c-10.515,133.488-22.857,285.037,44.116,393.155c28.115,45.715,118.632,152.462,350.411,160.006
		c100.346,3.656,342.869-7.772,434.301-189.265c67.203-134.403,56.459-301.495,46.858-448.929c0-16-2.057-31.772-2.972-47.087
		c-2.514-49.831-3.657-102.403-3.657-153.148c0-134.404-1.372-274.294-53.946-402.299
		c-33.815-69.583-93.681-123.043-166.632-148.804C930.544,83.923,852.693,73.332,774.742,76.104z"/>
	<path fill="#FFFFFF" d="M803.771,293.939c29.717,172.577,311.781,127.09,271.323-47.087
		C1038.751,90.733,793.943,133.935,803.771,293.939"/>
	<path fill="#010101" d="M937.947,406.629c-17.569,0.073-35.029-2.785-51.659-8.458c-46.153-15.269-79.644-55.404-86.402-103.546
		c-3.106-37.363,9.864-74.279,35.659-101.488c24.462-25.097,56.677-41.204,91.431-45.716c31.853-5.041,64.479,0.584,92.803,16
		c30.56,17.848,52.085,47.852,59.201,82.517c12.552,44.21-1.096,91.713-35.2,122.519
		C1014.286,393.572,976.684,407.136,937.947,406.629L937.947,406.629z M807.886,293.482c6.384,45.175,37.831,82.821,81.146,97.147
		c51.441,17.202,108.125,6.471,149.719-28.344c31.408-28.988,44.019-73.078,32.687-114.289
		c-14.591-64.653-78.108-105.849-143.09-92.804C857.471,161.26,804.175,222.442,807.886,293.482L807.886,293.482z"/>
	<path fill="#FFFFFF" d="M466.618,322.055c38.401,150.177,278.866,111.547,269.951-39.087
		C725.826,102.391,429.816,136.448,466.618,322.055"/>
	<path fill="#010101" d="M595.079,421.029c-24.45,0.184-48.563-5.707-70.174-17.144c-31.292-16.958-53.836-46.49-61.944-81.145
		c-12.174-47.749,4.617-98.212,42.973-129.147c46.224-35.271,107.782-43.118,161.377-20.571
		c43.738,19.122,72.315,61.987,73.145,109.717c4.801,80.003-58.745,126.632-119.546,137.146
		C612.342,420.935,603.706,421.316,595.079,421.029z M471.189,321.14c16.461,66.108,82.893,106.801,149.263,91.432
		c57.601-9.143,117.718-53.03,113.146-128.233c-0.564-44.924-27.396-85.35-68.573-103.316
		c-50.958-21.388-109.462-13.891-153.378,19.657C475.98,229.616,460.22,276.54,471.189,321.14z"/>
	<path fill="#FFFFFF" d="M836.916,502.175c2.2,23.798,2.2,47.748,0,71.545c-6.691,8.472-16.166,14.303-26.744,16.458
		c-13.219-2.03-24.5-10.642-29.943-22.858c-1.468-26.984-0.78-54.042,2.056-80.917L836.916,502.175z"/>
	<path fill="#010101" d="M812.687,593.606h-1.143c-14.772-2.295-27.311-12.065-33.144-25.83c-1.899-18.466-1.899-37.078,0-55.545
		c0-8.457,1.37-17.371,1.6-26.057v-6.858l61.716,18.973v3.886c0,7.314,0,15.086,1.144,22.858c2.063,16.316,2.063,32.828,0,49.144
		v1.144c-4.841,7.903-12.675,13.51-21.716,15.543l-7.086,2.743H812.687z M786.171,564.806c4.643,10.599,14.228,18.214,25.602,20.343
		l6.4-2.514c6.888-1.658,12.867-5.918,16.685-11.885c1.815-15.186,1.815-30.532,0-45.716c0-7.087,0-13.944-1.142-20.801
		l-45.717-13.943c0,7.085,0,14.172-1.37,21.029c-2.026,17.685-2.255,35.528-0.686,53.259L786.171,564.806z"/>
	<ellipse fill="#010101" cx="532.906" cy="297.369" rx="40.687" ry="44.116"/>
	<ellipse fill="#FFFFFF" cx="551.421" cy="307.426" rx="9.601" ry="11.2"/>
	<ellipse fill="#010101" cx="873.488" cy="286.397" rx="40.002" ry="44.115"/>
	<ellipse fill="#FFFFFF" cx="891.547" cy="296.454" rx="9.371" ry="11.2"/>
	<path fill="#FFFFFF" d="M722.626,498.747c-17.829,42.973,9.829,128.918,58.06,65.602c-1.468-26.984-0.78-54.042,2.057-80.917
		L722.626,498.747z"/>
	<path fill="#010101" d="M747.541,591.093c-4.18,0.04-8.291-1.067-11.886-3.201c-19.429-11.2-31.544-57.144-17.829-91.432v-1.828
		L786.4,477.26v5.486c0,8.914,0,17.829-1.6,26.287c-1.863,17.934-1.863,36.011,0,53.945v2.97
		C777.282,579.958,763.346,589.364,747.541,591.093z M724.912,502.175c-9.829,26.744-2.058,68.575,15.086,78.403
		c12.344,7.085,26.058-5.257,35.659-17.6c-1.74-17.939-1.74-36.005,0-53.945c0-6.629,0-13.715,1.37-20.572L724.912,502.175z"/>
	<path fill="#F6D2A2" d="M727.884,416.001c-28.78,2.738-49.89,28.289-47.15,57.067c0.527,5.548,1.938,10.976,4.178,16.079
		c22.857,41.144,73.602-3.658,105.146,0c36.345,0,66.287,38.402,95.545,6.857c32.459-35.201-13.942-68.573-50.287-84.803
		L727.884,416.001z"/>
	<path fill="#231F20" d="M859.773,513.375c-11.62-0.967-22.947-4.147-33.371-9.371c-11.304-5.582-23.556-8.993-36.116-10.057
		c-13.092-0.006-26.031,2.8-37.944,8.228c-25.601,8.915-54.631,18.973-71.088-10.515c-8.302-14.923-8.302-33.078,0-48.001
		c9.017-17.449,26.188-29.21,45.715-31.314l109.947-4.801c26.972,11.428,57.829,32.229,63.087,56.459
		c3.216,23.896-13.553,45.875-37.448,49.089C861.631,513.217,860.704,513.311,859.773,513.375z M791.2,485.718
		c13.514,1.097,26.699,4.741,38.858,10.742c20.572,8.687,36.802,15.315,53.259-2.513c7.638-7.018,11.17-17.444,9.373-27.659
		c-4.572-21.029-33.603-40.23-57.375-50.287l-106.289,4.343c-16.606,2.034-31.145,12.125-38.858,26.972
		c-6.875,12.448-6.875,27.554,0,40.001c13.029,22.858,36.344,15.315,61.26,6.858C763.937,488.574,777.493,485.692,791.2,485.718
		L791.2,485.718z"/>
	<path fill="#010101" d="M722.626,414.4c-2.515-57.144,106.746-64.459,119.547-16.458S727.884,456.916,722.626,414.4z"/>
</g>
</svg>
