<?xml version="1.0" encoding="utf-8"?>
<!-- Generator: Adobe Illustrator 16.0.0, SVG Export Plug-In . SVG Version: 6.00 Build 0)  -->
<!DOCTYPE svg PUBLIC "-//W3C//DTD SVG 1.1//EN" "http://www.w3.org/Graphics/SVG/1.1/DTD/svg11.dtd">
<svg version="1.1" id="Layer_4" xmlns="http://www.w3.org/2000/svg" xmlns:xlink="http://www.w3.org/1999/xlink" x="0px" y="0px"
	 width="1600px" height="1600px" viewBox="0 0 1600 1600" enable-background="new 0 0 1600 1600" xml:space="preserve">
<path fill="#E44D26" d="M1311.566,354.505l-93.861,1051.504l-421.92,116.969l-420.756-116.806L281.263,354.505H1311.566
	L1311.566,354.505z"/>
<path fill="#F16529" d="M796.415,1433.57l340.933-94.516l80.207-898.563h-421.14V1433.57z"/>
<path fill="#EBEBEB" d="M613.949,698.461h182.466V569.479H472.987l3.085,34.603l31.704,355.442h288.639V830.542H625.737
	L613.949,698.461z M643.02,1024.019h-129.48l18.069,202.523l264.212,73.342l0.594-0.162v-134.198l-0.565,0.151l-143.648-38.788
	L643.02,1024.019L643.02,1024.019z"/>
<path d="M377.121,68.704h65.547v64.761h59.962V68.704h65.551v196.111h-65.547v-65.669h-59.962v65.669h-65.547V68.704H377.121z
	 M654.375,133.739h-57.697V68.704h180.988v65.035h-57.731v131.076h-65.548V133.739h-0.004H654.375z M806.392,68.704h68.346
	l42.042,68.908l42.003-68.908h68.374v196.111h-65.281v-97.204l-45.096,69.728h-1.132l-45.123-69.728v97.204h-64.133V68.704z
	 M1059.777,68.704h65.567v131.29h92.179v64.821h-157.75V68.704H1059.777z"/>
<path fill="#FFFFFF" d="M795.971,959.524h158.828l-14.976,167.282l-143.856,38.828v134.188l264.424-73.281l1.939-21.792
	l30.313-339.572l3.146-34.636H795.971V959.524L795.971,959.524z M795.971,698.146v0.315h311.555l2.585-28.989l5.879-65.39
	l3.082-34.603H795.971V698.15V698.146z"/>
</svg>
