<?xml version="1.0" encoding="utf-8"?>
<!-- Generator: Adobe Illustrator 16.0.0, SVG Export Plug-In . SVG Version: 6.00 Build 0)  -->
<!DOCTYPE svg PUBLIC "-//W3C//DTD SVG 1.1//EN" "http://www.w3.org/Graphics/SVG/1.1/DTD/svg11.dtd">
<svg version="1.1" id="Layer_7" xmlns="http://www.w3.org/2000/svg" xmlns:xlink="http://www.w3.org/1999/xlink" x="0px" y="0px"
	 width="1600px" height="1600px" viewBox="0 0 1600 1600" enable-background="new 0 0 1600 1600" xml:space="preserve">
<g>
	<path fill="#F0DB4F" d="M142.256,142.256h1315.488v1315.488H142.256V142.256z"/>
	<path fill="#323330" d="M1350.079,1144.003c-9.629-60.022-48.768-110.417-164.687-157.434
		c-40.265-18.507-85.156-31.761-98.536-62.272c-4.751-17.758-5.377-27.762-2.376-38.516c8.628-34.887,50.269-45.767,83.28-35.764
		c21.258,7.129,41.392,23.511,53.521,49.646c56.771-36.764,56.646-36.515,96.285-61.772c-14.505-22.508-22.258-32.889-31.761-42.516
		c-34.138-38.14-80.655-57.772-155.058-56.271c-12.88,1.625-25.884,3.375-38.764,5.001c-37.14,9.378-72.527,28.886-93.285,55.021
		c-62.274,70.651-44.517,194.32,31.261,245.216c74.653,56.021,184.318,68.775,198.324,121.17
		c13.63,64.149-47.142,84.905-107.54,77.529c-44.517-9.254-69.275-31.887-96.035-73.027c-49.268,28.511-49.268,28.511-99.911,57.646
		c12.004,26.259,24.632,38.139,44.767,60.896c95.285,96.661,333.748,91.909,376.514-54.395
		C1347.829,1229.159,1359.334,1195.647,1350.079,1144.003z M857.396,746.855H734.351c0,106.289-0.499,211.828-0.499,318.117
		c0,67.65,3.501,129.674-7.502,148.681c-18.008,37.388-64.65,32.763-85.908,25.508c-21.633-10.629-32.637-25.759-45.392-47.141
		c-3.5-6.127-6.127-10.879-7.003-11.255c-33.386,20.383-66.65,40.889-100.037,61.273c16.632,34.138,41.141,63.772,72.527,83.029
		c46.893,28.136,109.916,36.764,175.816,21.634c42.891-12.505,79.903-38.389,99.285-77.778
		c28.011-51.644,22.009-114.168,21.759-183.317C858.021,972.813,857.396,860.022,857.396,746.855L857.396,746.855z"/>
</g>
</svg>
