<?xml version="1.0" encoding="utf-8"?>
<!-- Generator: Adobe Illustrator 16.0.0, SVG Export Plug-In . SVG Version: 6.00 Build 0)  -->
<!DOCTYPE svg PUBLIC "-//W3C//DTD SVG 1.1//EN" "http://www.w3.org/Graphics/SVG/1.1/DTD/svg11.dtd">
<svg version="1.1" id="Layer_15" xmlns="http://www.w3.org/2000/svg" xmlns:xlink="http://www.w3.org/1999/xlink" x="0px" y="0px"
	 width="1600px" height="1600px" viewBox="0 0 1600 1600" enable-background="new 0 0 1600 1600" xml:space="preserve">
<g id="Layer_6_1_">
	<g>
		<g>
			<path fill="#0868AB" d="M230.751,466.906c-115.47,165.948-101.084,381.858-12.89,558.204c2.099,4.229,4.297,8.385,6.465,12.556
				c1.382,2.623,2.686,5.332,4.125,7.926c0.808,1.563,1.721,3.085,2.568,4.578c1.508,2.816,3.042,5.482,4.606,8.231
				c2.74,4.824,5.553,9.624,8.419,14.423c1.59,2.639,3.16,5.274,4.799,7.91c3.18,5.136,6.438,10.229,9.774,15.292
				c1.39,2.161,2.74,4.327,4.166,6.418c4.598,6.864,9.298,13.715,14.146,20.438c0.126,0.166,0.265,0.35,0.406,0.518
				c0.768,1.088,1.619,2.148,2.394,3.224c4.191,5.79,8.524,11.496,12.89,17.159c1.611,2.054,3.245,4.116,4.864,6.182
				c3.901,4.91,7.876,9.782,11.915,14.646c1.514,1.814,3.029,3.642,4.557,5.428c5.418,6.377,10.952,12.739,16.611,18.977
				c0.098,0.112,0.23,0.238,0.335,0.349c0.229,0.267,0.432,0.433,0.634,0.684c5.52,6.03,11.163,11.933,16.884,17.82
				c1.771,1.81,3.587,3.641,5.406,5.452c4.431,4.45,8.932,8.82,13.479,13.215c1.847,1.744,3.676,3.543,5.51,5.229
				c6.076,5.725,12.209,11.33,18.467,16.801c0.11,0.11,0.187,0.195,0.292,0.236c1.061,0.949,2.163,1.859,3.209,2.736
				c5.519,4.784,11.129,9.528,16.779,14.189c2.303,1.856,4.632,3.698,6.95,5.538c4.618,3.698,9.283,7.339,13.987,10.925
				c2.483,1.897,4.974,3.794,7.477,5.694c5.185,3.794,10.408,7.573,15.691,11.244c1.927,1.395,3.788,2.731,5.723,4.061
				c0.53,0.374,1.019,0.767,1.562,1.126c5.009,3.432,10.123,6.769,15.235,10.075c2.197,1.463,4.382,2.971,6.6,4.393
				c7.849,4.955,15.809,9.865,23.857,14.627c2.192,1.238,4.395,2.47,6.592,3.708c5.916,3.418,11.868,6.768,17.908,10.046
				c3.258,1.757,6.613,3.418,9.899,5.091c4.269,2.247,8.497,4.506,12.821,6.654c0.983,0.502,2.002,0.979,2.972,1.439
				c1.729,0.837,3.487,1.661,5.238,2.541c6.712,3.206,13.479,6.347,20.302,9.399c1.458,0.641,2.861,1.284,4.304,1.912
				c7.822,3.418,15.712,6.725,23.692,9.865c1.913,0.767,3.845,1.505,5.772,2.274c7.375,2.834,14.846,5.636,22.344,8.274
				c0.955,0.336,1.871,0.641,2.81,0.959c8.239,2.89,16.555,5.554,24.932,8.167c1.995,0.585,4.004,1.229,6.014,1.812
				c8.524,2.565,16.938,5.623,25.743,7.254c558.401,101.826,720.605-335.569,720.605-335.569
				c-136.223,177.479-378.04,224.301-607.152,172.172c-8.684-1.952-17.099-4.658-25.569-7.171c-2.153-0.641-4.26-1.281-6.381-1.938
				c-8.267-2.54-16.464-5.201-24.618-8.008c-1.117-0.39-2.247-0.807-3.383-1.216c-7.302-2.566-14.518-5.272-21.711-8.051
				c-2.03-0.81-4.061-1.576-6.083-2.385c-7.881-3.111-15.716-6.365-23.44-9.752c-1.598-0.674-3.118-1.382-4.68-2.083
				c-6.646-3-13.221-6.025-19.784-9.179c-1.883-0.92-3.783-1.813-5.708-2.747c-5.136-2.497-10.227-5.163-15.291-7.771
				c-3.396-1.787-6.85-3.488-10.204-5.345c-6.196-3.319-12.279-6.767-18.328-10.282c-2.059-1.158-4.129-2.262-6.196-3.447
				c-8.051-4.741-16.003-9.656-23.872-14.637c-2.17-1.377-4.297-2.859-6.438-4.281c-5.708-3.685-11.394-7.423-16.982-11.303
				c-1.855-1.227-3.653-2.593-5.475-3.837c-5.409-3.807-10.75-7.687-16.062-11.606c-2.401-1.773-4.778-3.615-7.115-5.387
				c-4.862-3.725-9.703-7.463-14.488-11.33c-2.156-1.716-4.326-3.445-6.46-5.179c-6.091-5.006-12.104-10.028-18.048-15.192
				c-0.621-0.558-1.296-1.09-1.974-1.658c-6.42-5.653-12.74-11.442-18.969-17.263c-1.814-1.729-3.57-3.402-5.343-5.146
				c-4.625-4.382-9.165-8.819-13.63-13.353c-1.785-1.787-3.587-3.559-5.343-5.33c-5.684-5.832-11.259-11.719-16.727-17.704
				c-0.272-0.294-0.559-0.558-0.824-0.88c-5.784-6.322-11.434-12.782-16.966-19.311c-1.5-1.786-2.957-3.515-4.444-5.276
				c-4.122-4.968-8.21-10.006-12.202-15.097c-1.508-1.813-3.005-3.698-4.488-5.567c-4.798-6.237-9.5-12.443-14.105-18.78
				C264.9,788.439,219.201,549.125,320.864,352.592"/>
			<path fill="#0868AB" d="M589.175,327.085c-83.505,120.174-78.97,281.013-13.833,408.109
				c10.924,21.305,23.203,41.967,36.938,61.654c12.507,17.928,26.371,39.261,42.971,53.66c6.029,6.626,12.315,13.101,18.74,19.451
				c1.626,1.676,3.286,3.251,4.945,4.896c6.229,6.026,12.577,11.986,19.135,17.761c0.271,0.226,0.51,0.487,0.783,0.668
				c0.069,0.083,0.138,0.115,0.18,0.196c7.256,6.352,14.746,12.473,22.357,18.488c1.689,1.281,3.363,2.639,5.072,3.96
				c7.624,5.848,15.404,11.611,23.383,17.082c0.236,0.165,0.44,0.334,0.677,0.529c3.517,2.415,7.108,4.687,10.667,7.019
				c1.716,1.118,3.342,2.304,5.066,3.347c5.691,3.644,11.463,7.204,17.329,10.619c0.829,0.518,1.647,0.935,2.45,1.412
				c5.056,2.915,10.184,5.789,15.328,8.563c1.794,1.02,3.621,1.899,5.45,2.847c3.551,1.857,7.101,3.739,10.722,5.553
				c0.522,0.254,1.088,0.5,1.61,0.727c7.36,3.623,14.79,7.116,22.366,10.408c1.613,0.708,3.284,1.352,4.939,2.035
				c6.049,2.567,12.172,5.08,18.313,7.438c2.608,0.99,5.246,1.925,7.854,2.89c5.573,2.065,11.185,3.96,16.825,5.859
				c2.553,0.81,5.059,1.646,7.613,2.428c8.026,2.482,15.961,5.633,24.328,7.027c431.139,71.439,530.683-260.519,530.683-260.519
				c-89.734,129.196-263.492,190.884-448.913,142.745c-8.231-2.161-16.346-4.518-24.406-7.061c-2.47-0.749-4.897-1.561-7.342-2.372
				c-5.734-1.854-11.436-3.832-17.084-5.885c-2.589-0.935-5.172-1.882-7.709-2.859c-6.197-2.388-12.315-4.842-18.384-7.423
				c-1.655-0.711-3.337-1.342-4.955-2.093c-7.61-3.305-15.102-6.808-22.499-10.436c-3.802-1.875-7.533-3.837-11.271-5.749
				c-2.164-1.129-4.342-2.247-6.508-3.362c-4.81-2.613-9.574-5.302-14.282-8.051c-1.108-0.641-2.274-1.241-3.402-1.927
				c-5.845-3.418-11.594-6.933-17.288-10.546c-1.759-1.131-3.447-2.348-5.204-3.49c-3.761-2.44-7.515-4.91-11.199-7.408
				c-7.944-5.468-15.682-11.217-23.3-17.048c-1.757-1.382-3.523-2.736-5.247-4.116c-81.168-64.084-145.486-151.663-176.073-250.948
				c-32.055-102.997-25.153-218.579,30.383-312.394"/>
			<path fill="#0868AB" d="M890.621,222.626c-49.224,72.442-54.059,162.408-19.9,242.423
				c36.018,84.927,109.826,151.552,195.982,183.125c3.551,1.327,7.093,2.513,10.701,3.727c1.565,0.49,3.124,1.02,4.714,1.48
				c5.073,1.603,10.116,3.46,15.363,4.447c238.058,46,302.627-122.166,319.816-146.919
				c-56.571,81.44-151.615,100.989-268.248,72.693c-9.217-2.262-19.346-5.581-28.221-8.734c-11.385-4.048-22.602-8.679-33.512-13.91
				c-20.705-9.951-40.442-22.032-58.755-35.847C924.206,445.92,859.363,294.857,927.466,171.822"/>
		</g>
	</g>
</g>
</svg>
