<?xml version="1.0" encoding="utf-8"?>
<!-- Generator: Adobe Illustrator 16.0.0, SVG Export Plug-In . SVG Version: 6.00 Build 0)  -->
<!DOCTYPE svg PUBLIC "-//W3C//DTD SVG 1.1//EN" "http://www.w3.org/Graphics/SVG/1.1/DTD/svg11.dtd">
<svg version="1.1" id="Layer_14" xmlns="http://www.w3.org/2000/svg" xmlns:xlink="http://www.w3.org/1999/xlink" x="0px" y="0px"
	 width="1600px" height="1600px" viewBox="0 0 1600 1600" enable-background="new 0 0 1600 1600" xml:space="preserve">
<g>
	<path fill="#33475F" d="M1360.147,1237.562c-36.626-15.13-66.748-38.604-64.627-84.142c2.123-45.253-32.384-75.231-32.384-75.231
		s30.263-99.132,2.121-181.013c-27.999-82.018-120.626-213.251-191.759-312.383c-70.849-99.132-10.605-213.252-75.23-359.758
		c-64.77-146.224-232.768-137.739-323.272-75.233c-90.647,62.364-62.647,217.497-58.264,290.89
		c4.244,73.112,1.98,125.292-6.363,144.243c-8.625,18.95-66.747,88.384-105.496,146.506
		c-38.747,58.122-66.747,178.747-94.888,228.242c-28,49.637-8.627,94.747-8.627,94.747s-19.374,6.363-34.505,38.89
		c-15.131,32.102-45.111,47.231-98.99,57.839c-53.879,10.746-53.879,45.393-41.01,84.282c13.01,38.606,0,60.385-15.131,109.88
		c-15.132,49.495,60.242,64.627,133.495,73.111c73.253,8.767,155.133,56.141,224.142,64.625
		c68.87,8.627,90.505-47.373,90.505-47.373s77.495-17.252,159.231-19.373c81.881-2.263,159.233,17.111,159.233,17.111
		s15.132,34.505,43.131,49.495c28.142,15.13,88.384,17.251,127.134-23.617c38.747-41.01,142.261-92.626,200.242-124.87
		C1407.521,1301.906,1396.773,1252.412,1360.147,1237.562z M856.005,287.539c37.051,0,66.746,36.628,66.746,81.739
		c0,32.102-14.987,59.676-36.907,73.112c-5.516-2.545-11.314-4.809-17.536-7.636c13.151-6.506,22.484-23.335,22.484-42.85
		c0-25.454-15.839-46.101-35.211-46.101c-19.232,0-35.071,20.788-35.071,46.101c0,9.476,2.264,18.384,6.081,25.878
		c-11.454-4.524-22.062-8.909-30.403-11.878c-4.385-10.888-7.071-23.475-7.071-36.769
		C789.258,324.167,819.095,287.539,856.005,287.539z M851.196,460.064c18.385,6.366,39.031,18.384,36.91,30.265
		c-2.263,11.878-11.881,11.878-36.91,27.293c-25.029,15.13-79.191,48.786-96.584,50.907c-17.395,2.264-27.152-7.636-45.536-19.515
		c-18.384-11.878-53.172-40.304-44.404-55.434c0,0,27.009-20.788,38.889-31.535c11.878-10.89,42.424-36.91,60.808-33.517
		C782.753,431.641,832.813,453.561,851.196,460.064z M684.753,300.55c29.13,0,52.748,34.647,52.748,77.496
		c0,7.918-0.849,15.13-2.263,22.202c-7.071,2.545-14.283,6.363-21.354,12.161c-3.535,2.969-6.646,5.657-9.757,8.342
		c4.526-8.625,6.506-20.927,4.385-33.938c-3.819-23.475-19.516-40.444-34.93-37.898c-15.415,2.686-24.606,23.615-20.787,47.231
		c3.959,23.617,19.515,40.586,34.929,37.899c0.849-0.14,1.697-0.424,2.687-0.707c-7.495,7.212-14.424,13.436-21.495,18.666
		c-21.354-9.899-37.05-39.313-37.05-74.1C632.146,335.197,655.621,300.55,684.753,300.55z M627.904,1388.876
		c-6.929,30.829-43.131,53.313-43.131,53.313c-32.808,10.182-124.021-29.271-165.172-46.525
		c-41.293-17.111-146.223-22.483-160.081-37.758c-13.718-15.697,6.929-50.06,12.162-82.585c5.091-32.808-10.183-53.313-5.233-75.8
		c5.233-22.342,72.263-22.342,98-37.756c25.879-15.557,30.97-60.243,51.616-72.264c20.647-12.16,58.405,30.829,73.96,55.152
		c15.555,23.898,73.96,127.272,98,153.011C612.49,1323.4,634.692,1358.047,627.904,1388.876z M1008.874,1088.795
		c-6.224,30.402-6.224,140-6.224,140s-66.746,92.484-170.262,107.616c-103.374,15.13-155.13,4.242-155.13,4.242l-58.122-66.748
		c0,0,45.112-6.506,38.749-51.759c-6.506-45.11-137.88-107.756-161.496-163.757c-23.616-56-4.242-150.89,25.879-198.264
		c30.122-47.374,49.495-150.746,79.617-185.253c30.262-34.362,53.737-107.616,43.131-139.857c0,0,64.626,77.636,109.878,64.627
		c45.112-13.011,146.503-88.384,161.494-75.375c15.133,13.011,144.385,297.254,157.111,387.759
		c13.012,90.505-8.624,159.232-8.624,159.232S1015.238,1058.532,1008.874,1088.795z M1339.5,1291.723
		c-20.081,18.384-132.08,63.779-165.596,98.85c-33.375,35.071-77.07,63.495-103.799,55.152
		c-26.868-8.484-50.344-45.112-38.465-98.85c11.597-53.455,21.777-111.999,20.081-145.516c-1.697-33.514-8.484-78.767,0-85.414
		c8.345-6.506,21.638-3.252,21.638-3.252s-6.506,63.495,31.817,80.324c38.322,16.685,93.617-6.648,110.446-23.617
		c16.827-16.688,28.565-41.717,28.565-41.717s16.687,8.484,15.13,35.211c-1.697,26.729,11.597,65.334,36.91,78.627
		C1320.977,1254.814,1359.581,1273.199,1339.5,1291.723z"/>
</g>
</svg>
