<?xml version="1.0" encoding="utf-8"?>
<!-- Generator: Adobe Illustrator 16.0.0, SVG Export Plug-In . SVG Version: 6.00 Build 0)  -->
<!DOCTYPE svg PUBLIC "-//W3C//DTD SVG 1.0//EN" "http://www.w3.org/TR/2001/REC-SVG-20010904/DTD/svg10.dtd">
<svg version="1.0" id="Layer_3" xmlns="http://www.w3.org/2000/svg" xmlns:xlink="http://www.w3.org/1999/xlink" x="0px" y="0px"
	 width="1600px" height="1600px" viewBox="0 0 1600 1600" enable-background="new 0 0 1600 1600" xml:space="preserve">
<g id="g3001" transform="translate(230.46016,6.4962049)">
	<path id="path16" fill="#00546B" d="M1196.358,1197.026
		c-80.99-2.024-143.757,6.085-196.402,28.351c-15.188,6.07-39.488,6.075-41.514,25.308c8.105,8.105,9.113,21.263,16.2,32.396
		c12.16,20.241,33.413,47.584,52.651,61.764c21.253,16.19,42.516,32.391,64.786,46.566c39.483,24.3,84.033,38.465,122.499,62.766
		c22.28,14.166,44.541,32.4,66.816,47.583c11.138,8.091,18.221,21.258,32.396,26.321c0-1.018,0-2.025,0-3.038
		c-7.088-9.112-9.112-22.275-16.195-32.4c-10.115-10.12-20.25-19.237-30.37-29.358c-29.363-39.478-65.804-73.898-105.287-102.249
		c-32.391-22.271-103.267-52.641-116.43-90.104c0,0-1.012-1.008-2.024-2.016c22.274-2.025,48.596-10.125,69.858-16.205
		c34.42-9.112,65.804-7.088,101.236-16.195c16.195-4.05,32.4-9.112,48.591-14.175c0-3.043,0-6.07,0-9.108
		c-18.215-18.229-31.378-42.521-50.616-59.733c-51.628-44.551-108.324-88.079-167.045-124.52
		c-31.383-20.245-71.879-33.413-105.287-50.616c-12.145-6.085-32.395-9.112-39.478-19.237
		c-18.23-22.275-28.351-51.629-41.509-77.954c-29.353-55.688-57.708-117.435-83.016-176.15
		c-18.216-39.485-29.354-78.971-51.629-115.415C620.316,417.503,506.93,313.231,332.799,210.977
		c-37.458-21.258-81.999-30.37-129.583-41.505c-25.303-1.015-50.618-3.035-75.926-4.05c-16.195-7.09-32.398-26.32-46.573-35.433
		c-57.694-36.45-206.521-115.407-249.042-11.135c-27.335,65.806,40.496,130.592,63.779,164.005
		c17.217,23.283,39.483,49.604,51.633,75.929c7.087,17.198,9.107,35.433,16.195,53.653c16.203,44.536,31.38,94.149,52.646,135.663
		c11.14,21.258,23.283,43.531,37.458,62.761c8.098,11.133,22.268,16.203,25.31,34.423c-14.17,20.248-15.185,50.618-23.29,75.929
		c-36.443,114.397-22.268,256.13,29.36,340.153c16.195,25.304,54.671,80.996,106.299,59.733
		c45.558-18.22,35.433-75.929,48.593-126.55c3.042-12.149,1.018-20.245,7.088-28.34c0.005,1.007,0,2.024,0,2.024
		c14.175,28.346,28.346,55.679,41.506,84.024c31.385,49.604,86.051,101.236,131.607,135.662
		c24.305,18.216,43.538,49.604,73.909,60.741c0-1.022,0-2.025,0-3.043c-1.018,0-1.018,0-2.025,0
		c-6.08-9.112-15.188-13.157-23.286-20.245c-18.22-18.226-38.476-40.496-52.644-60.741c-42.513-56.7-79.981-119.462-113.387-184.258
		c-16.195-31.378-30.37-65.804-43.531-97.182c-6.078-12.16-6.078-30.376-16.203-36.441c-15.185,22.266-37.451,41.504-48.591,68.837
		c-19.226,43.533-21.258,97.187-28.346,152.865c-4.045,1.018-2.027,0-4.052,2.024c-32.391-8.1-43.531-41.503-55.681-69.854
		c-30.37-71.879-35.433-187.29-9.107-270.297c7.087-21.265,37.46-88.079,25.311-108.327c-6.073-19.238-26.326-30.371-37.461-45.556
		c-13.158-19.238-27.335-43.531-36.443-64.796c-24.298-56.688-36.448-119.457-62.766-176.155
		c-12.15-26.326-33.408-53.654-50.621-77.947c-19.23-27.335-40.493-46.573-55.679-78.971c-5.058-11.133-12.15-29.353-4.052-41.503
		c2.025-8.098,6.07-11.135,14.175-13.161c13.16-11.14,50.618,3.035,63.778,9.108c37.458,15.178,68.839,29.36,100.227,50.618
		c14.17,10.123,29.355,29.361,47.576,34.423c7.088,0,14.175,0,21.266,0c32.396,7.08,68.838,2.025,99.209,11.133
		c53.661,17.205,102.247,42.523,145.785,69.856c132.625,84.026,241.951,203.491,315.865,346.233
		c12.149,23.278,17.202,44.548,28.341,68.841c21.263,49.608,47.583,100.226,68.841,148.818
		c21.258,47.578,41.503,96.179,71.879,135.662c15.188,21.248,75.929,32.391,103.257,43.533c20.25,9.103,51.638,17.212,69.858,28.34
		c34.421,21.254,68.841,45.559,101.237,68.842C1142.7,1151.469,1193.316,1176.786,1196.358,1197.026L1196.358,1197.026
		L1196.358,1197.026z"/>
	<path id="path18" fill="#00546B" d="M163.726,317.269c-17.21,0-29.353,2.033-41.503,5.068
		c0-0.005,0,1.017,0,2.027c1.015,0,1.01,0,2.025,0c8.105,16.195,22.268,27.335,32.391,41.506
		c8.105,16.195,15.185,32.396,23.29,48.598c1.01-1.018,2.02-2.028,2.02-2.028c14.183-10.13,21.263-26.325,21.263-50.618
		c-6.077-7.087-7.087-14.175-12.15-21.263C184.992,330.43,171.824,325.374,163.726,317.269L163.726,317.269z"/>
</g>
</svg>
