<?xml version="1.0" encoding="utf-8"?>
<!-- Generator: Adobe Illustrator 16.0.0, SVG Export Plug-In . SVG Version: 6.00 Build 0)  -->
<!DOCTYPE svg PUBLIC "-//W3C//DTD SVG 1.1//EN" "http://www.w3.org/Graphics/SVG/1.1/DTD/svg11.dtd">
<svg version="1.1" id="Layer_13" xmlns="http://www.w3.org/2000/svg" xmlns:xlink="http://www.w3.org/1999/xlink" x="0px" y="0px"
	 width="1600px" height="1600px" viewBox="0 0 1600 1600" enable-background="new 0 0 1600 1600" xml:space="preserve">
<g>
	<path fill="#8CC84B" d="M740.344,87.016c36.128-20.68,83.186-20.773,119.282,0c181.602,102.614,363.261,205.068,544.832,307.745
		c34.151,19.237,56.995,57.244,56.647,96.595v617.368c0.254,40.981-24.847,79.896-60.877,98.697
		c-181.005,102.049-361.917,204.223-542.891,306.271c-36.876,21.085-84.877,19.46-120.601-3.353
		c-54.266-31.457-108.624-62.761-162.895-94.187c-11.09-6.611-23.591-11.874-31.422-22.626c6.923-9.33,19.3-10.492,29.357-14.566
		c22.651-7.202,43.455-18.765,64.265-29.984c5.262-3.602,11.687-2.221,16.73,1.001c46.403,26.607,92.396,53.985,138.956,80.337
		c9.933,5.734,19.989-1.878,28.48-6.611c177.621-100.389,355.46-200.396,533.051-300.817c6.58-3.165,10.218-10.15,9.683-17.358
		c0.124-203.656,0.032-407.349,0.063-611.006c0.752-8.178-3.981-15.698-11.376-19.044
		c-180.377-101.582-360.66-203.319-541.007-304.927c-6.396-4.397-14.837-4.41-21.245-0.032
		c-180.346,101.64-360.599,203.471-540.945,305.047c-7.369,3.352-12.315,10.747-11.438,18.957c0.031,203.657,0,407.35,0,611.038
		c-0.641,7.203,3.273,14.042,9.808,17.14c48.126,27.291,96.314,54.39,144.472,81.587c27.13,14.604,60.441,23.28,90.331,12.092
		c26.378-9.46,44.868-36.377,44.364-64.385c0.249-202.468-0.125-404.967,0.187-607.405c-0.659-8.988,7.867-16.414,16.606-15.568
		c23.123-0.156,46.278-0.311,69.402,0.062c9.652-0.218,16.295,9.46,15.101,18.516c-0.093,203.75,0.249,407.505-0.155,611.255
		c0.062,54.302-22.248,113.389-72.475,139.958c-61.878,32.054-138.359,25.257-199.49-5.48
		c-52.921-26.414-103.424-57.586-155.406-85.884c-36.123-18.698-61.099-57.769-60.846-98.718V491.355
		c-0.378-40.166,23.373-78.863,58.588-97.82C378.458,291.403,559.401,189.194,740.344,87.016z"/>
	<path fill="#8CC84B" d="M898.225,514.67c78.931-5.08,163.429-3.009,234.456,35.875c54.992,29.798,85.479,92.334,86.449,153.429
		c-1.536,8.241-10.15,12.787-18.017,12.221c-22.9-0.031-45.807,0.312-68.708-0.156c-9.714,0.374-15.36-8.583-16.58-17.171
		c-6.58-29.232-22.521-58.184-50.035-72.283c-42.236-21.147-91.209-20.083-137.265-19.642c-33.623,1.785-69.776,4.695-98.26,24.468
		c-21.869,14.977-28.511,45.209-20.706,69.558c7.358,17.483,27.539,23.124,44.052,28.324
		c95.122,24.878,195.92,22.403,289.225,55.142c38.629,13.347,76.418,39.294,89.642,79.74
		c17.296,54.208,9.714,119.002-28.854,162.521c-31.276,35.813-76.828,55.304-122.262,65.89
		c-60.439,13.477-123.164,13.819-184.544,7.836c-57.717-6.58-117.777-21.743-162.333-61.068
		c-38.101-33.082-56.709-84.629-54.862-134.38c0.44-8.401,8.806-14.26,16.854-13.57c23.062-0.186,46.124-0.249,69.185,0.032
		c9.211-0.659,16.041,7.302,16.513,15.983c4.256,27.851,14.723,57.082,39.008,73.595c46.871,30.239,105.682,28.169,159.351,29.015
		c44.463-1.973,94.374-2.569,130.658-31.956c19.144-16.762,24.815-44.806,19.642-68.931c-5.604-20.368-26.912-29.86-45.209-36.066
		c-93.902-29.703-195.827-18.926-288.82-52.517c-37.752-13.341-74.26-38.567-88.764-77.353
		c-20.238-54.893-10.965-122.791,31.645-164.84c41.545-41.827,101.52-57.934,158.54-63.7V514.67z"/>
</g>
</svg>
