<?xml version="1.0" encoding="utf-8"?>
<!-- Generator: Adobe Illustrator 16.0.0, SVG Export Plug-In . SVG Version: 6.00 Build 0)  -->
<!DOCTYPE svg PUBLIC "-//W3C//DTD SVG 1.1//EN" "http://www.w3.org/Graphics/SVG/1.1/DTD/svg11.dtd">
<svg version="1.1" id="Layer_3" xmlns="http://www.w3.org/2000/svg" xmlns:xlink="http://www.w3.org/1999/xlink" x="0px" y="0px"
	 width="1600px" height="1600px" viewBox="0 0 1600 1600" enable-background="new 0 0 1600 1600" xml:space="preserve">
<g>
	
		<linearGradient id="SVGID_1_" gradientUnits="userSpaceOnUse" x1="494.3521" y1="1196.5957" x2="494.7285" y2="1196.2222" gradientTransform="matrix(1849.2676 0 0 -1853.3921 -913967.3125 2217989.25)">
		<stop  offset="0" style="stop-color:#387EB8"/>
		<stop  offset="1" style="stop-color:#366994"/>
	</linearGradient>
	<path fill="url(#SVGID_1_)" d="M792.208,96.703c-357.46,0-335.141,155.016-335.141,155.016l0.397,160.602h341.118v48.217H321.978
		c0,0-228.739-25.942-228.739,334.733c0,360.686,199.649,347.895,199.649,347.895h119.149V975.792
		c0,0-6.423-199.648,196.462-199.648h338.329c0,0,190.082,3.07,190.082-183.71v-308.83
		C1136.91,283.604,1165.78,96.703,792.208,96.703z M604.117,204.704c33.861-0.03,61.336,27.395,61.366,61.256
		c0,0.038,0,0.074,0,0.111c0.03,33.862-27.395,61.336-61.256,61.367c-0.037,0-0.074,0-0.11,0
		c-33.862,0.03-61.337-27.396-61.367-61.257c0-0.036,0-0.074,0-0.11c-0.031-33.861,27.395-61.336,61.257-61.367
		C604.042,204.704,604.079,204.704,604.117,204.704z"/>
	
		<linearGradient id="SVGID_2_" gradientUnits="userSpaceOnUse" x1="494.2363" y1="1196.6963" x2="494.6407" y2="1196.3132" gradientTransform="matrix(1849.2672 0 0 -1853.3917 -913322.125 2218616.75)">
		<stop  offset="0" style="stop-color:#FFE052"/>
		<stop  offset="1" style="stop-color:#FFC331"/>
	</linearGradient>
	<path fill="url(#SVGID_2_)" d="M802.359,1497.466c357.46,0,335.142-155.017,335.142-155.017l-0.397-160.596H795.98v-48.217h476.604
		c0,0,228.739,25.942,228.739-334.744c0-360.68-199.648-347.889-199.648-347.889h-119.15v167.367c0,0,6.424,199.648-196.462,199.648
		H647.734c0,0-190.083-3.071-190.083,183.715v308.836c0,0-28.864,186.896,344.703,186.896H802.359z M990.451,1389.475
		c-33.861,0.031-61.336-27.395-61.367-61.256c0-0.036,0-0.073,0-0.109c-0.033-33.862,27.39-61.34,61.252-61.373
		c0.039,0,0.077,0,0.115,0c33.861-0.03,61.337,27.396,61.367,61.257c0,0.036,0,0.073,0,0.11
		c0.031,33.861-27.395,61.336-61.256,61.366c-0.038,0-0.074,0-0.111,0V1389.475z"/>
</g>
</svg>
