<?xml version="1.0" encoding="utf-8"?>
<!-- Generator: Adobe Illustrator 16.0.0, SVG Export Plug-In . SVG Version: 6.00 Build 0)  -->
<!DOCTYPE svg PUBLIC "-//W3C//DTD SVG 1.1//EN" "http://www.w3.org/Graphics/SVG/1.1/DTD/svg11.dtd">
<svg version="1.1" id="Layer_8" xmlns="http://www.w3.org/2000/svg" xmlns:xlink="http://www.w3.org/1999/xlink" x="0px" y="0px"
	 width="1600px" height="1600px" viewBox="0 0 1600 1600" enable-background="new 0 0 1600 1600" xml:space="preserve">
<g>
	<path fill="#7383BF" d="M800,871.013c-294.901,0-540.971-107.374-599.331-250.356c-8.663,21.064-13.313,42.858-13.313,65.2
		c0,174.351,274.292,315.736,612.644,315.736c338.306,0,612.645-141.385,612.645-315.736c0-22.341-4.742-44.135-13.269-65.2
		C1340.832,763.639,1094.763,871.013,800,871.013z"/>
	<path fill="#556080" d="M800,1097.843c-294.901,0-540.971-107.42-599.331-250.311c-8.663,21.018-13.313,42.858-13.313,65.244
		c0,174.305,274.292,315.646,612.644,315.646c338.306,0,612.645-141.341,612.645-315.646c0-22.386-4.742-44.227-13.269-65.291
		C1340.832,990.423,1094.763,1097.843,800,1097.843z"/>
	<path fill="#424A60" d="M800,1331.829c-294.901,0-540.971-107.329-599.331-250.4c-8.663,21.108-13.313,42.949-13.313,65.29
		c0,174.352,274.292,315.646,612.644,315.646c338.306,0,612.645-141.294,612.645-315.646c0-22.341-4.742-44.182-13.269-65.29
		C1340.832,1224.547,1094.763,1331.829,800,1331.829z"/>
	<ellipse fill="#7FABDA" cx="800" cy="453.281" rx="612.645" ry="315.646"/>
</g>
</svg>
